<svg xmlns="http://www.w3.org/2000/svg" width="512" height="512" viewBox="0 0 512 512" version="1.1">
	<path d="M 305.787 100.041 C 287.057 104.646, 270.819 116.761, 257.224 136.272 L 253.202 142.043 249.566 137.090 C 241.875 126.612, 228.959 116.696, 213.410 109.330 C 200.326 103.133, 192.512 101.644, 177 102.396 C 161.093 103.167, 158.461 103.836, 151.888 108.777 C 144.996 113.956, 113.762 134.128, 95 145.516 C 87.025 150.356, 78.025 156.216, 75 158.538 C 44.484 181.959, 34.212 218.008, 49.001 249.783 C 53.082 258.549, 60.265 268.639, 73.106 283.640 C 87.536 300.498, 96.756 314.318, 105.098 331.590 C 110.448 342.669, 112.779 346.409, 116.006 349.090 C 126.901 358.143, 127.192 358.538, 126.477 363.306 C 125.891 367.215, 126.348 368.733, 130.779 377.590 C 136.724 389.473, 146.718 415.153, 148.261 422.510 C 149.208 427.022, 149.124 428.162, 147.684 430.359 C 145.213 434.131, 145.615 438.168, 148.915 442.724 C 151.326 446.053, 152.591 446.862, 156.244 447.409 C 161.789 448.241, 173.189 446.508, 182.791 443.373 C 191.601 440.497, 221.279 427.158, 251.137 412.654 L 272.774 402.143 289.163 410.322 C 313.699 422.566, 333.602 429.373, 348.636 430.662 C 359.063 431.556, 360.360 431.004, 362.978 424.554 C 365.142 419.222, 365.154 418.971, 363.469 414.557 C 362.251 411.369, 361.939 408.768, 362.415 405.765 C 363.734 397.443, 372.475 373.336, 378.239 362.123 C 383.159 352.552, 384.055 350.012, 383.886 346.123 C 383.595 339.426, 384.575 337.388, 389.817 333.790 C 395.869 329.636, 396.779 328.508, 404.087 316.096 C 411.332 303.788, 420.994 290.114, 432.117 276.423 C 445.971 259.371, 452.066 250.824, 456.119 242.763 C 467.541 220.046, 466.360 194.165, 452.855 171.251 C 448.223 163.392, 434.105 149.381, 424.500 143.110 C 420.100 140.237, 406.680 132.935, 394.678 126.884 C 382.677 120.832, 365.825 111.858, 357.231 106.940 L 341.605 98 327.552 98.072 C 317.338 98.125, 311.393 98.663, 305.787 100.041 M 311.831 110.379 C 291.193 118.868, 275.321 143.918, 274.689 169 C 274.585 173.125, 274.862 177.803, 275.305 179.395 L 276.111 182.289 277.805 178.895 C 280.016 174.466, 286.336 172.649, 296.798 173.435 C 315.544 174.842, 337.663 186.712, 355.255 204.805 C 364.284 214.091, 367.609 220.448, 368.927 230.945 C 369.426 234.917, 370.061 238.394, 370.339 238.672 C 372.122 240.455, 391.052 223.382, 399.091 212.739 C 409.333 199.182, 412.976 189.279, 412.976 175 C 412.976 161.321, 408.868 149.985, 401.336 142.882 C 396.128 137.970, 384.730 130.486, 369.332 121.868 C 362.274 117.918, 354.105 113.096, 351.177 111.153 L 345.855 107.620 337.677 108.782 C 332.221 109.558, 328.169 109.629, 325.500 108.996 C 319.715 107.625, 318.141 107.784, 311.831 110.379 M 160.220 111.986 C 157.866 113.055, 153.165 116.082, 149.773 118.714 C 146.381 121.346, 137.639 127.570, 130.346 132.545 C 97.792 154.753, 92.473 161.483, 91.257 182 C 90.826 189.277, 91.108 191.518, 93.217 197.577 C 96.204 206.163, 102.425 215.984, 111.379 226.250 C 119.346 235.385, 132.957 247.497, 133.942 246.328 C 134.326 245.873, 135.175 242.125, 135.829 238 C 137.651 226.505, 142.571 217.450, 152.354 207.588 C 161.755 198.111, 169.914 192.311, 181.381 186.955 C 194.710 180.729, 207.552 178.819, 220.688 181.106 C 227.989 182.377, 231.118 184.458, 231.342 188.188 C 231.656 193.396, 233 189.733, 232.992 183.691 C 232.967 162.595, 224.495 142.552, 209 126.930 C 202.308 120.183, 198.721 117.471, 192.134 114.180 C 184.034 110.133, 183.462 110.001, 174.134 110.022 C 166.766 110.039, 163.494 110.501, 160.220 111.986 M 279.989 212.409 C 279.979 227.903, 278.243 242.342, 273.968 262.500 C 272.802 268, 270.752 277.900, 269.412 284.500 C 267.661 293.126, 266.136 297.854, 263.988 301.316 C 260.615 306.754, 260.463 307.706, 262.532 310.441 C 263.356 311.531, 264 314.519, 264 317.257 C 264 319.938, 264.509 323.083, 265.131 324.245 C 266.241 326.318, 266.294 326.303, 267.892 323.430 C 271.186 317.508, 276.321 310, 277.078 310 C 277.506 310, 278.833 312.587, 280.026 315.750 C 282.461 322.202, 282.337 327.052, 279.422 339.416 L 277.720 346.635 286.374 359.231 C 291.133 366.158, 295.653 373.600, 296.418 375.768 C 297.663 379.296, 297.618 380.138, 295.990 383.773 C 294.990 386.008, 292.268 389.683, 289.942 391.941 C 287.615 394.198, 285.889 396.206, 286.106 396.402 C 286.802 397.033, 296.373 401.719, 300.354 403.378 C 303.512 404.695, 304.111 404.731, 303.668 403.578 C 303.371 402.804, 308.918 390.553, 315.995 376.355 C 326.001 356.281, 328.612 350.237, 327.733 349.178 C 326.039 347.138, 303.336 328.006, 296.750 323.070 C 293.587 320.699, 291 318.549, 291 318.291 C 291 318.034, 296.101 320.525, 302.336 323.828 C 314.433 330.237, 345.009 344.360, 348.750 345.267 C 352.741 346.235, 351.123 344.583, 344.733 341.168 C 332.188 334.463, 286.683 306.395, 282.617 302.855 C 279.567 300.198, 277.966 297.734, 276.716 293.767 C 274.282 286.045, 274.573 285.111, 277.959 289.785 C 281.164 294.209, 286.004 297.711, 304.500 308.988 C 315.639 315.779, 336.603 326.982, 338.195 326.995 C 338.577 326.998, 337.763 324.452, 336.386 321.337 C 332.764 313.149, 328.315 295.009, 326.948 282.862 C 325.531 270.265, 326.829 257.734, 330.493 248.642 C 331.792 245.421, 332.641 242.229, 332.381 241.550 C 331.826 240.105, 324 235.511, 324 236.631 C 324 237.049, 325.209 238.653, 326.687 240.195 C 328.165 241.738, 328.940 243, 328.410 243 C 327.074 243, 323.466 240.462, 317 234.972 C 313.975 232.404, 306.652 226.800, 300.727 222.519 C 294.803 218.238, 289.730 214.373, 289.456 213.929 C 289.182 213.485, 295.605 216.966, 303.729 221.663 C 324.054 233.416, 337.115 239.935, 334.504 237.024 C 329.357 231.286, 314.881 220.216, 298.250 209.298 L 280 197.318 279.989 212.409 M 209.202 212.983 C 192.749 222.946, 183.738 229.599, 172.178 240.318 C 167.929 244.259, 166.618 245.954, 168.178 245.490 C 172.349 244.251, 187.269 235.928, 198.500 228.575 C 204.550 224.614, 210.738 220.563, 212.250 219.572 C 217.618 216.055, 214.887 218.808, 207.252 224.611 C 202.991 227.850, 193.879 235.186, 187.002 240.914 C 180.126 246.642, 174.322 251.471, 174.104 251.644 C 173.885 251.818, 174.682 254.506, 175.873 257.619 C 178.584 264.704, 181 278.313, 181 286.500 C 181 299.498, 176.703 317.690, 169.913 333.445 C 167.792 338.365, 166.195 342.529, 166.364 342.697 C 166.946 343.279, 186.541 333.248, 199 325.990 C 217.316 315.321, 222.836 311.431, 229.331 304.620 C 234.656 299.037, 235.099 298.766, 234.438 301.503 C 232.303 310.340, 226.579 317.355, 215.500 324.712 C 206.085 330.965, 174.434 349.861, 164.500 355.160 C 159.550 357.801, 156.009 359.970, 156.631 359.981 C 160.971 360.054, 204.474 341.081, 217.594 333.392 C 224.608 329.282, 222.731 331.339, 213.250 338.152 C 208.438 341.610, 200.192 347.603, 194.926 351.470 C 189.661 355.336, 183.235 359.962, 180.648 361.750 L 175.943 364.999 179.119 368.250 C 182.587 371.797, 202.871 415.685, 202.954 419.817 C 203.008 422.548, 203.300 422.493, 215.855 417.347 C 227.251 412.676, 235.162 408.593, 237.212 406.323 C 239.584 403.695, 242.001 397.614, 241.996 394.282 L 241.993 391.500 239.897 395 C 237.230 399.454, 231.969 405, 230.411 405 C 228.417 405, 228.111 402.596, 229.120 394.872 C 230.203 386.588, 229.596 372.363, 227.392 354.403 C 225.947 342.622, 225.964 342.165, 228.026 336.903 C 229.190 333.931, 230.491 331.143, 230.916 330.706 C 231.827 329.770, 236.797 336.166, 247.462 352 C 251.722 358.325, 255.459 363.725, 255.767 364 C 256.336 364.508, 250.266 353.329, 248.980 351.500 C 248.593 350.950, 246.574 346.065, 244.494 340.644 C 242.030 334.223, 239.335 329.198, 236.764 326.227 C 232.122 320.864, 232.136 320.580, 237.736 306.154 L 241.484 296.500 241.428 280 C 241.369 262.766, 240.507 255.373, 236.454 237.339 C 233.932 226.120, 226.880 203.003, 226 203.073 C 225.725 203.095, 218.166 207.555, 209.202 212.983 M 175.693 244.563 C 173.455 246.083, 172 247.879, 172 249.119 C 172 250.259, 172.528 250.991, 173.191 250.770 C 174.739 250.254, 180.489 243.155, 179.864 242.531 C 179.601 242.268, 177.724 243.182, 175.693 244.563" stroke="none" fill="black" fill-rule="evenodd"/>
</svg>