<svg xmlns="http://www.w3.org/2000/svg" width="512" height="512" viewBox="0 0 512 512" version="1.1">
	<path d="M 17.750 12.745 L 9 13.078 9 255.039 L 9 497 14.392 497 C 19.443 497, 19.826 496.827, 20.458 494.250 C 20.829 492.738, 23.808 484.716, 27.079 476.424 C 32.582 462.471, 41.200 445.854, 48.563 435 L 51.616 430.500 62.085 430.641 C 70.951 430.760, 74.003 431.267, 82.027 433.954 C 91.445 437.108, 115.747 450.176, 116.671 452.584 C 117.315 454.262, 109.025 467.398, 97.554 482.876 C 92.299 489.966, 88 496.045, 88 496.384 C 88 496.723, 114.805 497, 147.566 497 L 207.133 497 202.316 490.776 C 199.667 487.353, 190.300 477.387, 181.500 468.631 C 167.537 454.737, 165.755 452.610, 167.500 451.922 C 168.600 451.489, 172.523 450.203, 176.219 449.064 C 179.914 447.925, 190.249 443.852, 199.184 440.012 C 208.120 436.172, 215.743 433.361, 216.126 433.765 C 217.655 435.382, 227.940 452.928, 231.211 459.500 C 233.127 463.350, 237.532 473.363, 240.998 481.750 L 247.302 497 253.151 497 C 256.368 497, 259 496.767, 259 496.482 C 259 495.513, 249.216 476.530, 245.122 469.555 L 241.046 462.610 244.648 456.055 C 250.182 445.983, 253.879 440.219, 260.397 431.500 C 267.519 421.973, 280.789 408, 282.714 408 C 283.466 408, 285.300 408.883, 286.790 409.963 C 288.281 411.043, 298.197 417.069, 308.826 423.355 L 328.151 434.783 324.826 437.272 C 322.997 438.640, 316.967 442.730, 311.427 446.359 C 292.428 458.806, 280.164 470.998, 269.768 487.773 C 267.146 492.005, 265 495.813, 265 496.234 C 265 496.655, 307.097 497, 358.550 497 C 438.426 497, 451.982 496.795, 451.300 495.601 C 450.860 494.831, 441.825 484.551, 431.222 472.757 C 411.231 450.520, 407 445.404, 407 443.470 C 407 441.797, 436.779 427.747, 449 423.654 C 454.775 421.719, 462.017 419.838, 465.094 419.473 L 470.688 418.809 476.874 428.874 C 483.233 439.222, 496.009 463.820, 504.207 481.500 C 511.746 497.757, 511.931 497.779, 511.968 482.438 L 512 469.376 509.116 467.244 C 507.530 466.072, 505.280 463.145, 504.116 460.740 L 502 456.369 502 234.184 L 502 12 264.250 12.206 C 133.488 12.319, 22.563 12.561, 17.750 12.745 M 314.061 35.023 C 293.978 37.821, 270.276 50.677, 265.951 61.117 C 264.788 63.927, 264.848 64.416, 266.514 65.634 C 267.542 66.385, 268.713 67, 269.117 67 C 269.521 67, 271.804 64.202, 274.189 60.782 C 281.719 49.987, 293.909 42.836, 310.698 39.364 C 320.576 37.321, 335.485 37.982, 346.367 40.946 C 355.870 43.534, 358.338 43.059, 351.505 39.957 C 340.816 35.105, 326.764 33.253, 314.061 35.023 M 360.250 41.682 C 359.012 41.933, 358 42.307, 358 42.513 C 358 42.719, 360.522 45.272, 363.604 48.187 C 370.193 54.419, 372.091 57.833, 375.497 69.586 C 378.558 80.151, 380.013 98.643, 379.029 114.500 C 378.567 121.945, 378.694 125.766, 379.423 126.324 C 380.922 127.470, 437.976 126.340, 441.239 125.099 C 446.605 123.059, 447.500 120.049, 447.500 104.046 C 447.500 96.046, 447.150 88.249, 446.723 86.719 C 446.296 85.189, 444.496 83.054, 442.723 81.973 C 439.867 80.231, 437.622 80.005, 423 79.988 C 405.877 79.969, 401.058 79.085, 406.534 76.968 C 408.165 76.338, 411.750 74.956, 414.500 73.897 C 425.754 69.563, 434.944 59.701, 435.759 51.083 C 436.134 47.108, 435.837 46.169, 433.517 44 L 430.842 41.500 396.671 41.362 C 377.877 41.286, 361.488 41.430, 360.250 41.682 M 195 56.304 C 189.037 57.663, 180 61.686, 180 62.982 C 180 63.424, 180.631 64.028, 181.402 64.324 C 183.560 65.152, 185.107 74.102, 184.061 79.700 C 183.568 82.339, 183.330 84.663, 183.532 84.865 C 183.733 85.066, 185.338 84.729, 187.098 84.116 C 191.227 82.676, 199.229 82.689, 204.078 84.141 C 209.431 85.745, 214.607 90.335, 218.156 96.623 C 219.825 99.580, 221.353 102, 221.551 102 C 221.749 102, 223.559 100.881, 225.574 99.514 C 235.814 92.566, 249.110 93.798, 258.903 102.603 L 264 107.185 264 96.774 C 264 85.454, 262.358 77.997, 258.898 73.598 C 255.179 68.870, 235.034 60.318, 220 57.084 C 211.930 55.349, 200.728 54.999, 195 56.304 M 281.500 62.427 C 280.950 62.646, 279.353 63.075, 277.952 63.381 C 276.330 63.735, 274.586 65.393, 273.153 67.941 C 271.169 71.472, 271.038 72.396, 272.048 75.767 C 272.713 77.984, 273.048 84.043, 272.847 90.187 L 272.500 100.784 275.184 98.871 C 279.443 95.835, 285.780 94, 292.004 94 C 298.329 94, 303.258 95.706, 309.658 100.108 C 311.969 101.699, 314.105 103, 314.404 103 C 314.704 103, 315.596 101.763, 316.387 100.250 C 317.178 98.737, 320.353 94.800, 323.442 91.500 C 328.583 86.008, 328.955 85.306, 327.836 83.204 C 323.709 75.456, 314.048 68.050, 303.979 64.916 C 298.343 63.162, 283.722 61.543, 281.500 62.427 M 185.250 93.464 C 182.363 94.808, 180 96.342, 180 96.872 C 180 97.403, 179.726 98.550, 179.391 99.423 C 178.909 100.680, 179.892 100.492, 184.141 98.514 C 190.918 95.359, 199.056 95.127, 203.696 97.956 C 207.601 100.337, 209.850 103.650, 212.126 110.372 C 213.918 115.664, 215.510 116.724, 217.332 113.836 C 218.510 111.968, 216.563 106.856, 211.832 99.395 C 206.513 91.009, 195.704 88.597, 185.250 93.464 M 333.500 92.523 C 329.108 94.880, 326.148 97.852, 322.364 103.702 C 316.095 113.396, 319.071 115.363, 325.764 105.950 C 331.827 97.425, 334.889 95.726, 342.846 96.477 C 347.774 96.942, 349.098 96.788, 348.772 95.788 C 347.619 92.251, 337.884 90.170, 333.500 92.523 M 284.030 102.583 C 276.948 105.655, 275.664 108.807, 278.135 117.055 C 279.139 120.408, 279.025 121.153, 277.135 123.556 C 275.961 125.049, 275 127.498, 275 128.999 C 275 131.307, 275.685 131.990, 279.436 133.423 C 281.876 134.354, 285.463 136.877, 287.407 139.029 C 290.755 142.734, 297 153.762, 297 155.967 C 297 156.531, 294.300 157.742, 291 158.660 C 284.735 160.402, 283.343 162.380, 286.524 165.020 C 288.727 166.848, 300.749 165.575, 303.991 163.169 C 307.571 160.514, 311.660 154.303, 313.611 148.557 C 315.873 141.895, 314.985 121.016, 312.170 114.651 C 307.578 104.272, 293.780 98.354, 284.030 102.583 M 233 103.949 C 224.951 108.227, 222.813 113.770, 221.395 134.036 C 220.847 141.862, 221.019 144.104, 222.356 146.536 C 224.877 151.126, 240.581 167.377, 241.779 166.636 C 243.775 165.403, 244.244 160.187, 242.574 157.802 C 240.433 154.746, 240.588 152.746, 243.392 147.217 C 246.724 140.645, 249.107 138.752, 253.960 138.819 C 258.766 138.885, 259.067 137.655, 255.997 130.492 L 253.993 125.818 256.127 122.822 C 259.301 118.364, 259.125 112.784, 255.699 109.207 C 249.285 102.513, 239.825 100.321, 233 103.949 M 236.003 109.752 C 232.170 111.668, 230.596 115.113, 233.676 114.843 C 237.812 114.481, 239.057 115.192, 241.017 119.034 L 243.076 123.068 246.039 121.318 C 249.823 119.082, 250.498 116.863, 248.541 113.080 C 245.825 107.826, 241.924 106.791, 236.003 109.752 M 289.077 110.589 C 287.385 112.013, 286 113.778, 286 114.512 C 286 116.239, 290.841 122, 292.291 122 C 292.904 122, 294.877 120.573, 296.677 118.828 C 299.626 115.970, 300.207 115.773, 302.550 116.841 C 308.500 119.552, 307.513 114.780, 301.243 110.519 C 296.518 107.308, 292.951 107.329, 289.077 110.589 M 186.655 113.829 C 184.391 116.330, 184.574 117.675, 187.433 119.548 C 190.503 121.560, 194 120.024, 194 116.665 C 194 112.164, 189.673 110.494, 186.655 113.829 M 338.012 115.977 C 337.172 117.547, 337.370 118.370, 338.977 119.977 C 340.090 121.090, 341.418 122, 341.929 122 C 343.271 122, 346 119.070, 346 117.629 C 346 113.963, 339.778 112.677, 338.012 115.977 M 376.135 133.043 C 374.325 138.234, 374.550 138.500, 380.750 138.501 C 383.913 138.502, 388.863 138.882, 391.750 139.345 C 396.587 140.121, 397 140.033, 397 138.225 C 397 136.779, 395.403 135.569, 390.939 133.633 C 387.605 132.187, 383.166 130.730, 381.074 130.396 C 377.473 129.820, 377.209 129.962, 376.135 133.043 M 278.200 139.200 C 277.540 139.860, 277 140.976, 277 141.681 C 277 142.829, 278.093 143.249, 284.250 144.467 C 286.715 144.954, 286.424 142.747, 283.686 140.174 C 281.049 137.698, 279.906 137.494, 278.200 139.200 M 403.336 139.567 C 402.578 141.543, 403.432 142.286, 408.889 144.397 C 418.785 148.225, 427.282 156.612, 432.646 167.847 C 437.789 178.621, 436.872 194.213, 430.406 205.902 C 429.067 208.323, 428.182 210.515, 428.439 210.773 C 429.100 211.433, 436.215 205.658, 439.872 201.493 C 441.559 199.572, 443.185 198, 443.486 198 C 444.746 198, 438.522 208.782, 435.357 212.082 C 432.174 215.402, 432.010 215.878, 433.121 218.582 C 433.781 220.187, 434.330 225.775, 434.342 231 C 434.376 245.908, 429.162 259.420, 416.387 277.536 C 407.975 289.463, 397.215 297.873, 380.457 305.615 C 376.253 307.558, 373.004 309.337, 373.236 309.569 C 373.468 309.802, 378.428 309.116, 384.258 308.045 C 398.938 305.347, 411.901 298.735, 423.250 288.155 C 425.863 285.719, 428 284.152, 428 284.672 C 428 286.816, 420.529 297.866, 415.691 302.877 L 410.500 308.255 413.875 307.627 C 415.731 307.282, 419.288 307, 421.779 307 C 425.815 307, 426.740 306.538, 430.291 302.750 C 433.939 298.857, 434.221 298.723, 433.641 301.157 C 433.293 302.619, 432.733 304.531, 432.397 305.407 C 432.003 306.435, 432.327 307, 433.311 307 C 434.150 307, 435.473 307.244, 436.251 307.543 C 438.825 308.531, 445.315 292.343, 449.497 274.500 C 455.448 249.113, 456.474 226.925, 452.536 208.763 C 451.135 202.298, 451.042 199.817, 451.975 193.666 C 454.646 176.043, 444.762 154.620, 430.348 146.792 C 426.626 144.770, 406.598 138, 404.339 138 C 404.118 138, 403.667 138.705, 403.336 139.567 M 363.972 140.877 C 355.926 143.452, 346.496 148.749, 340.735 153.928 C 329.281 164.226, 326.200 182, 335.869 182 C 341.083 182, 349.352 175.601, 353.830 168.102 C 355.538 165.240, 355.768 163.617, 355.282 157.822 L 354.705 150.940 359.268 146.568 C 361.777 144.164, 365.213 141.892, 366.904 141.521 C 368.594 141.150, 370.234 140.431, 370.548 139.923 C 371.316 138.680, 370.440 138.807, 363.972 140.877 M 247.973 144.520 C 244.358 147.187, 242.442 149.775, 243.384 150.718 C 243.696 151.030, 244.588 150.757, 245.365 150.112 C 246.143 149.467, 248.741 149.065, 251.139 149.219 C 255.097 149.474, 255.532 149.274, 255.845 147.056 C 256.057 145.554, 255.502 144.109, 254.404 143.306 C 252.041 141.578, 251.932 141.599, 247.973 144.520 M 158.016 148.458 C 157.457 149.928, 156.976 151.888, 156.946 152.815 C 156.917 153.742, 154.465 156.300, 151.496 158.500 C 148.528 160.700, 140.742 166.840, 134.193 172.145 C 117.575 185.605, 115.543 188.790, 114.095 203.647 C 113.389 210.880, 112.061 216.478, 109.101 224.699 C 100.066 249.790, 94.709 281.731, 96.439 300.192 L 97.146 307.737 112.323 308.278 C 124.778 308.722, 129.733 309.379, 139.953 311.944 C 147.971 313.957, 153.491 314.844, 155.453 314.437 C 166.738 312.095, 189.649 299.674, 201.911 289.250 C 205.719 286.013, 206.146 285.842, 205.035 288 C 202.732 292.474, 184.537 309.538, 176.168 315.074 L 168.004 320.473 171.580 321.711 C 174.859 322.847, 175.628 322.706, 180.828 320.015 C 183.948 318.400, 188.030 316.075, 189.899 314.847 L 193.299 312.614 191.571 315.251 C 190.621 316.700, 187.833 319.535, 185.374 321.550 C 180.568 325.488, 180.240 327.116, 184.074 328.012 C 185.786 328.412, 186.593 329.376, 186.816 331.290 C 186.990 332.780, 187.504 334, 187.958 334 C 189.109 334, 190.124 329.487, 189.399 327.597 C 189.021 326.612, 190.353 324.274, 193.006 321.267 C 198.677 314.840, 203.053 305.847, 209 288.402 C 213.270 275.875, 214.663 272.993, 218.786 268.148 C 227.761 257.605, 235 246.972, 235 244.332 C 235 243.786, 232.863 241.842, 230.250 240.011 C 227.637 238.181, 224.311 235.592, 222.858 234.259 L 220.217 231.833 216.075 242.667 C 213.797 248.625, 210.813 256.460, 209.445 260.078 C 201.539 280.989, 181.061 300, 161.576 304.519 C 155.469 305.935, 154.027 305.927, 145.234 304.429 C 139.929 303.526, 133.112 302.992, 130.083 303.243 L 124.577 303.700 129.039 299.856 C 131.492 297.741, 139.238 293.058, 146.250 289.448 C 153.262 285.838, 159.016 282.348, 159.035 281.692 C 159.156 277.538, 162.181 264.458, 164.328 258.803 C 169.999 243.866, 177.221 235.755, 190.479 229.434 C 195.573 227.005, 200.361 224.255, 201.120 223.322 C 202.334 221.830, 202.285 221.706, 200.717 222.294 C 191.811 225.633, 184.402 227.190, 180.163 226.613 C 168.867 225.076, 157.736 216.302, 151.810 204.266 C 148.895 198.345, 148.500 196.582, 148.500 189.500 C 148.500 178.587, 152.217 170.833, 161.698 161.963 C 172.508 151.852, 178.497 148.719, 183.411 150.604 C 184.647 151.078, 184.295 151.674, 181.780 153.369 C 171.188 160.507, 169.079 174.326, 177.176 183.547 C 181.828 188.845, 185.681 190.689, 200.074 194.502 C 217.797 199.198, 216.977 198.895, 216.355 200.516 C 215.494 202.762, 221.830 212.830, 227.969 218.969 C 233.990 224.990, 242.632 229.834, 256.625 235.031 C 261.093 236.691, 269.418 241.025, 275.125 244.663 C 287.144 252.326, 293.298 255.334, 301.084 257.355 C 309.034 259.418, 314.353 258.177, 328.500 250.959 C 342.059 244.041, 341.868 245.366, 327.750 256.163 C 323.487 259.423, 320 262.562, 320 263.140 C 320 264.270, 327.273 260.346, 333.041 256.104 C 340.377 250.709, 356.985 235.623, 357.551 233.840 C 358.835 229.794, 349.182 213.529, 342.448 208.393 L 339.113 205.849 334.807 208.341 C 332.438 209.712, 326.014 212.502, 320.531 214.541 C 315.048 216.580, 307.698 219.767, 304.198 221.624 C 300.004 223.849, 296.458 225, 293.801 225 C 290.021 225, 289.069 224.318, 278.634 214.136 C 266.941 202.727, 260.089 197.759, 248.167 192.047 L 240.961 188.595 238.014 179.047 C 233.128 163.213, 228.433 157.513, 215 151.105 C 208.341 147.929, 206.659 147.540, 200 147.635 C 195.875 147.695, 191.242 148.248, 189.704 148.865 C 187.418 149.781, 186.422 149.668, 184.249 148.243 C 182.224 146.917, 178.900 146.416, 170.311 146.143 L 159.032 145.785 158.016 148.458 M 282.040 149.452 C 280.394 151.435, 281.123 154.400, 283.361 154.831 C 284.372 155.026, 286.742 154.896, 288.627 154.542 L 292.054 153.899 290.311 150.950 C 288.375 147.672, 284.152 146.907, 282.040 149.452 M 245.750 154.080 C 243.203 155.564, 243.608 157.864, 246.547 158.601 C 247.947 158.953, 249.351 158.982, 249.667 158.667 C 250.424 157.910, 249.171 152.991, 248.231 153.030 C 247.829 153.047, 246.713 153.519, 245.750 154.080 M 322.094 171.921 C 320.976 172.628, 320.817 174.629, 321.319 181.656 C 322.259 194.818, 326.184 206.152, 328.884 203.499 C 329.573 202.821, 329.231 201.044, 327.824 197.999 C 325.369 192.682, 324.288 180.237, 325.805 174.744 C 326.701 171.499, 326.616 171.002, 325.169 171.015 C 324.251 171.024, 322.867 171.431, 322.094 171.921 M 383.368 174.571 C 381.516 176.535, 380 178.933, 380 179.900 C 380 181.494, 390.101 195.578, 392.380 197.162 C 394.516 198.646, 403 193.285, 403 190.452 C 403 189.093, 392.230 172.893, 390.577 171.765 C 388.489 170.341, 386.702 171.037, 383.368 174.571 M 337.656 197.116 C 335.541 198.232, 334.086 199.420, 334.422 199.756 C 334.758 200.092, 335.566 199.834, 336.217 199.183 C 337.930 197.470, 343.627 197.732, 347.849 199.718 C 352.983 202.135, 361.158 211.014, 364.863 218.199 C 368.654 225.549, 368.772 227.926, 365.500 231 C 361.474 234.783, 362.626 235.253, 367.303 231.736 L 371.607 228.500 369.755 222.505 C 367.200 214.233, 364.140 209.368, 357.607 203.189 C 352.106 197.987, 346.778 194.957, 343.282 195.044 C 342.302 195.069, 339.770 196.001, 337.656 197.116 M 420 230.861 C 420 236.985, 404.290 266.836, 393.562 281.097 C 390.540 285.114, 388.240 288.573, 388.451 288.784 C 388.662 288.995, 391.899 287.667, 395.646 285.834 C 405.626 280.949, 415.870 270.587, 420.631 260.562 C 424.003 253.461, 424.327 252.022, 424.334 244.140 C 424.340 238.370, 423.804 234.254, 422.722 231.750 C 420.783 227.261, 420 227.005, 420 230.861 M 262 256.630 C 262 257.602, 263.099 262.020, 264.441 266.448 C 265.784 270.877, 267.409 277.650, 268.053 281.500 C 268.697 285.350, 269.854 289.850, 270.624 291.500 C 272.488 295.497, 285.497 305, 289.103 305 C 292.795 305, 316.305 293.190, 315.643 291.668 C 315.363 291.026, 313.641 286.781, 311.817 282.236 L 308.500 273.972 304.500 274.674 C 293.920 276.533, 285.427 273.712, 274.921 264.852 C 271.389 261.873, 267.038 258.408, 265.250 257.150 C 262.339 255.103, 262 255.048, 262 256.630 M 316.032 270.960 C 314.791 271.744, 314.746 272.756, 315.739 277.491 C 317.043 283.708, 325.622 300.360, 330.216 305.593 L 333.174 308.963 331.143 311.545 C 329.291 313.900, 329.224 315.559, 330.861 318.490 C 331.166 319.034, 331.677 318.367, 331.998 317.007 C 332.433 315.166, 334.488 313.560, 340.041 310.722 C 344.143 308.625, 347.613 306.592, 347.750 306.203 C 347.888 305.815, 345.925 304.396, 343.388 303.050 C 334.569 298.372, 325.938 287.566, 321.021 275.046 C 319.125 270.220, 318.288 269.534, 316.032 270.960 M 433.500 342.661 C 426.519 343.375, 426.143 343.985, 431.111 346.532 C 437.344 349.729, 444.380 357.812, 449.098 367.195 C 451.244 371.463, 453 375.338, 453 375.805 C 453 377.641, 425.223 349.322, 424.035 346.274 C 422.987 343.586, 422.474 343.211, 420.955 344.024 C 419.952 344.561, 416.135 345, 412.472 345 C 406.610 345, 405.749 345.244, 405.279 347.040 C 404.791 348.907, 404.599 348.947, 403.016 347.514 C 401.666 346.293, 400.048 346.094, 395.652 346.611 C 388.314 347.473, 387.455 348.560, 389.004 355.017 C 391.787 366.617, 404.628 375.466, 432.430 384.943 C 446.726 389.816, 452.514 392.504, 454.902 395.382 C 455.755 396.410, 454.418 396.293, 449.391 394.899 C 445.740 393.887, 435.496 392.390, 426.627 391.574 C 416.653 390.656, 408.297 389.327, 404.725 388.090 C 396.677 385.303, 387.059 380.020, 385.386 377.467 C 384.614 376.288, 383.069 371.088, 381.953 365.912 C 378.326 349.088, 379.385 350, 363.468 350 C 348.874 350, 349.686 349.497, 343.005 362.687 C 338.898 370.794, 338.541 372.100, 338.544 379 C 338.547 387.199, 340.047 391.100, 346.719 400.261 L 350.186 405.021 347.343 403.948 C 335.375 399.430, 321.250 386.967, 319.274 379.180 C 318.176 374.855, 319.037 367.687, 321.128 363.736 C 321.779 362.506, 324.267 358.635, 326.656 355.134 C 329.045 351.632, 331 347.947, 331 346.945 C 331 345.199, 330.791 345.193, 326.069 346.811 C 312.955 351.304, 307.621 358.992, 306.509 375 C 306.137 380.344, 305.235 385.455, 304.446 386.682 C 303.674 387.882, 299.658 391.227, 295.521 394.116 C 291.385 397.004, 288 399.702, 288 400.111 C 288 403.178, 337.941 427, 344.371 427 C 345.961 427, 339.557 420.736, 327.185 410.189 C 320.961 404.884, 316.345 400.385, 316.928 400.191 C 318.415 399.695, 344.118 413.182, 350.213 417.656 C 352.988 419.694, 357.536 423.304, 360.320 425.680 C 363.103 428.056, 365.904 430, 366.544 430 C 367.184 430, 372.836 427.570, 379.104 424.600 C 392.614 418.199, 413.896 410.352, 423 408.417 C 430.601 406.801, 445 406.528, 445 408 C 445 408.550, 443.853 409, 442.450 409 C 436.771 409, 431.476 414.322, 434.993 416.496 C 435.539 416.833, 440.679 415.934, 446.416 414.498 C 452.508 412.972, 460.176 411.806, 464.857 411.693 L 472.870 411.500 469.986 408.500 C 464.900 403.211, 463.975 399.451, 464.096 384.581 C 464.225 368.812, 462.428 361.717, 456.233 353.539 C 449.392 344.508, 443.411 341.646, 433.500 342.661 M 79.287 345.447 C 72.205 348.744, 65.493 355.738, 61.674 363.799 C 58.740 369.993, 58.506 371.257, 58.578 380.500 C 58.621 386, 59.018 394.621, 59.461 399.659 C 60.202 408.075, 60.082 409.199, 57.986 413.529 C 56.605 416.382, 54.381 419.022, 52.352 420.220 C 50.509 421.308, 49 422.266, 49.001 422.349 C 49.001 422.432, 55.863 422.502, 64.251 422.505 C 82.275 422.511, 85.503 423.297, 103.865 432.145 C 110.665 435.422, 116.423 437.910, 116.661 437.673 C 117.530 436.803, 103.534 425.067, 97.234 421.382 C 89.998 417.151, 90.500 416.123, 98.886 417.997 C 107.253 419.866, 113.437 422.916, 126.004 431.371 C 138.402 439.712, 141.447 440.884, 137.780 435.904 C 129.498 424.656, 104.175 412.711, 88.305 412.566 C 80.758 412.497, 80.096 411.462, 86.628 409.946 C 98.484 407.195, 116.845 410.888, 134.035 419.480 C 137.041 420.982, 143.876 424.898, 149.225 428.180 C 155.305 431.912, 159.428 433.855, 160.225 433.365 C 160.926 432.934, 169.114 426.827, 178.420 419.793 C 187.725 412.760, 195.552 407.219, 195.813 407.479 C 196.073 407.740, 193.473 411.590, 190.034 416.034 C 186.596 420.479, 183.969 424.302, 184.197 424.530 C 184.424 424.758, 187.439 423.607, 190.895 421.972 C 200.532 417.415, 201.235 418.200, 194.027 425.473 C 190.499 429.033, 187.826 432.159, 188.087 432.420 C 188.790 433.123, 212.740 425.935, 214.852 424.387 C 215.046 424.245, 212.404 420.876, 208.982 416.899 C 200.036 406.505, 199.550 404.981, 201.413 393.154 C 203.467 380.108, 202.394 375.535, 195.832 369.368 C 192.738 366.460, 184.704 361, 183.520 361 C 181.869 361, 183.438 366.664, 185.960 369.809 C 194.243 380.136, 193.638 393.598, 184.582 400.506 C 182.582 402.031, 180.727 403.060, 180.460 402.793 C 180.193 402.526, 181.156 399.651, 182.601 396.404 C 187.101 386.292, 185.986 375.914, 179.484 367.390 C 177.708 365.062, 175.213 363.569, 170.451 361.984 C 166.833 360.780, 163.647 360.020, 163.372 360.295 C 163.097 360.570, 162.197 365.454, 161.374 371.148 C 159.236 385.928, 157.165 389.676, 148.875 393.776 C 139.286 398.518, 131.538 399.828, 103.318 401.483 C 89.469 402.295, 76.206 403.393, 73.846 403.923 C 71.485 404.454, 69.428 404.762, 69.274 404.607 C 69.120 404.453, 71.547 403.077, 74.668 401.549 C 78.639 399.605, 85.317 397.892, 96.921 395.840 C 120.721 391.633, 136.237 386.148, 146.725 378.234 C 151.104 374.930, 155.225 366.332, 154.817 361.354 C 154.504 357.554, 154.418 357.479, 148.654 356.021 C 143.254 354.654, 142.712 354.673, 141.544 356.271 C 139.794 358.664, 139.195 358.433, 139.741 355.575 C 140.143 353.473, 139.691 353.008, 136.352 352.081 C 131.213 350.654, 131.552 350.576, 127.547 354.093 L 124.024 357.186 125.503 353.646 C 126.317 351.700, 126.649 349.902, 126.241 349.651 C 125.833 349.401, 122.783 348.662, 119.462 348.009 L 113.425 346.823 104.521 356.162 C 91.143 370.193, 71.781 389.114, 71.296 388.630 C 70.626 387.959, 76.779 376.187, 81.670 368.786 C 86.768 361.070, 96.560 351.736, 102.750 348.692 C 105.088 347.542, 107 346.277, 107 345.880 C 107 344.936, 94.478 343.603, 92.551 344.342 C 91.733 344.656, 90.798 344.482, 90.473 343.956 C 89.448 342.298, 84.689 342.932, 79.287 345.447 M 331.110 354.978 C 327.002 361.005, 324.802 368.843, 325.653 374.413 C 326.351 378.977, 328.589 384, 329.925 384 C 330.406 384, 331.573 380.512, 332.518 376.250 C 334.170 368.799, 337.619 360.839, 341.941 354.500 C 343.066 352.850, 343.990 351.163, 343.993 350.750 C 343.997 350.337, 341.863 350.001, 339.250 350.002 C 334.675 350.004, 334.375 350.187, 331.110 354.978" stroke="none" fill="black" fill-rule="evenodd"/>
</svg>