<svg xmlns="http://www.w3.org/2000/svg" width="512" height="512" viewBox="0 0 512 512" version="1.1">
	<path d="M 0 256.002 L 0 512.004 256.250 511.752 L 512.500 511.500 512.752 255.750 L 513.004 0 256.502 0 L 0 0 0 256.002 M 0.492 256.500 C 0.492 397.300, 0.608 454.751, 0.750 384.170 C 0.892 313.588, 0.892 198.388, 0.750 128.170 C 0.608 57.951, 0.492 115.700, 0.492 256.500 M 256.393 13.173 C 255.848 14.055, 257.858 14.583, 267.111 15.989 C 273.953 17.029, 293.921 22.817, 297.767 24.875 C 300.331 26.247, 302 29.031, 302 31.934 C 302 34.435, 304.238 34.619, 306.547 32.310 C 307.941 30.916, 308.121 29.489, 307.576 24.164 C 306.547 14.121, 306.767 14.290, 293.768 13.612 C 273.993 12.582, 256.883 12.381, 256.393 13.173 M 10.947 13.250 C 10.764 14.125, 10.725 132.796, 10.852 303.750 L 11 502 255.500 502 C 389.975 502, 500.013 501.663, 500.028 501.250 C 500.043 500.837, 500.073 390.925, 500.094 257 L 500.133 13.500 409.316 13.500 L 318.500 13.500 318.500 26.091 C 318.500 40.169, 318.359 40.533, 311.330 44.653 C 306.469 47.501, 306.112 48.999, 308.168 57.909 C 309.219 62.461, 309.144 63.184, 307.418 65.095 C 305.766 66.925, 305.500 68.784, 305.500 78.525 C 305.500 88.775, 305.284 90.124, 303.185 92.963 C 300.325 96.832, 299.169 94.772, 320.180 123.249 C 341.568 152.236, 344.445 155.626, 352.500 161.335 C 356.350 164.063, 359.888 166.955, 360.363 167.761 C 362.375 171.177, 365.072 172.775, 371.588 174.410 C 375.389 175.364, 380.750 177.409, 383.500 178.956 C 386.688 180.748, 392.487 182.552, 399.500 183.933 C 414.185 186.824, 424.288 191.715, 433.837 200.556 C 443.844 209.820, 448.386 218, 443.524 218 C 441.040 218, 432.734 222.023, 426.066 226.456 C 418.117 231.740, 407.619 240.658, 382.622 263.357 C 372.240 272.786, 362.857 280.990, 361.771 281.589 C 360.226 282.442, 358.357 282.141, 353.149 280.201 C 348.055 278.303, 343.927 277.616, 335.500 277.263 C 322.467 276.718, 315.347 278.113, 301.387 283.946 C 294.323 286.898, 292.220 287.451, 292.888 286.184 C 293.377 285.258, 294.328 281.800, 295.002 278.500 C 296.375 271.783, 298.014 268.136, 301.969 263 C 304.508 259.704, 306.936 255.904, 305.804 257 C 305.520 257.275, 302.098 261.224, 298.200 265.776 C 288.164 277.496, 284.416 284.173, 280.957 296.489 C 277.368 309.273, 274.976 314.141, 267.441 324 C 261.245 332.107, 257.025 340.123, 257.010 343.817 C 257.002 345.761, 257.362 346.023, 259.250 345.439 C 263.896 344.003, 269.745 340.553, 277.500 334.675 C 295.640 320.927, 300.650 316.601, 303.573 312.164 C 315.789 293.620, 322.575 283.790, 324.134 282.379 C 326.637 280.114, 344.166 280.968, 352 283.736 C 361.042 286.932, 360.328 288.207, 344.001 298.029 C 336.256 302.688, 319.475 314.085, 306.710 323.356 C 275.352 346.129, 270.791 349.175, 254 358.554 L 239.500 366.654 239.817 371.167 C 240.105 375.281, 239.729 376.154, 235.567 381.031 C 233.055 383.973, 231.004 386.632, 231.009 386.940 C 231.057 390.023, 234.229 413.566, 235.537 420.543 C 237.612 431.613, 237.194 445.950, 234.656 450.763 C 232.945 454.008, 232.949 454.030, 235.468 454.988 C 236.861 455.517, 238 456.202, 238 456.508 C 238 456.815, 236.877 459.282, 235.505 461.990 C 234.133 464.698, 232.220 470.861, 231.255 475.686 C 229.767 483.122, 229.119 484.654, 227 485.750 C 225.126 486.719, 218.350 486.999, 199.955 486.869 C 186.455 486.774, 174.440 486.337, 173.255 485.899 C 171.313 485.180, 171.113 484.415, 171.229 478.149 C 171.384 469.802, 169.705 466.533, 164.807 465.643 C 159.862 464.745, 150.576 466.391, 138.392 470.325 C 113.674 478.308, 98.264 477.147, 74.876 465.540 C 67.107 461.684, 55.564 454.576, 50.629 450.607 C 49.161 449.427, 48.900 448.345, 49.418 445.586 C 49.781 443.652, 50.457 441.836, 50.920 441.550 C 51.383 441.263, 53.278 442.392, 55.131 444.057 C 62.825 450.973, 82.764 461.327, 94.619 464.562 C 102.870 466.814, 117.566 467.544, 123.929 466.017 C 126.777 465.334, 128.912 464.579, 128.673 464.339 C 128.433 464.100, 122.447 463.786, 115.369 463.640 C 103.520 463.397, 101.638 463.083, 91.627 459.675 C 79.705 455.616, 68.174 449.928, 60.631 444.386 C 56.007 440.988, 55.788 440.616, 56.275 436.989 C 57.009 431.516, 62.115 424.607, 67.271 422.111 C 71.137 420.239, 73.128 420.048, 86.541 420.262 C 100.817 420.489, 101.753 420.381, 107.045 417.899 C 110.095 416.469, 115.482 412.718, 119.017 409.564 C 122.552 406.409, 128.466 402.064, 132.159 399.907 C 139.972 395.344, 141.932 392.884, 144.875 383.947 C 146.554 378.846, 148.154 376.296, 152.091 372.447 C 158.991 365.701, 159.338 364.889, 157.980 358.702 C 156.523 352.062, 158.062 332.714, 160.409 328.175 C 161.301 326.451, 164.611 323.160, 167.765 320.862 C 170.919 318.564, 173.676 316.541, 173.891 316.367 C 174.106 316.193, 175.545 307.377, 177.089 296.776 C 181.947 263.407, 184.861 251.276, 197.935 210 C 206.120 184.158, 206.240 182.997, 201.441 176.037 C 199.369 173.033, 195.951 166.845, 193.845 162.286 C 190.178 154.349, 189.707 153.801, 182.758 149.395 C 173.884 143.768, 172.375 141.956, 170.959 135.228 L 169.849 129.956 162.215 126.228 C 152.929 121.693, 151.789 120.159, 154.418 115.731 C 155.473 113.954, 158.881 107.775, 161.991 102 C 168.721 89.503, 187.623 61.295, 193.402 55.125 C 205.667 42.028, 231.766 31.183, 255.382 29.367 C 260.122 29.003, 264 28.327, 264 27.864 C 264 27.402, 258.488 24.332, 251.750 21.043 C 243.402 16.967, 237.429 14.736, 233 14.039 C 227.480 13.169, 11.126 12.401, 10.947 13.250 M 280.042 55.450 C 278.886 56.842, 279.043 57.458, 281.148 59.786 C 285.152 64.217, 285.788 65.324, 286.490 69.079 C 287.047 72.061, 286.714 73.186, 284.496 75.822 L 281.834 78.986 284.167 79.874 C 285.450 80.363, 288.144 81.450, 290.154 82.290 L 293.808 83.818 294.904 79.466 C 295.507 77.073, 296 71.463, 296 67.001 L 296 58.888 291.590 56.937 C 284.901 53.978, 281.614 53.555, 280.042 55.450 M 241.608 60.329 C 236.805 61.779, 235.041 64.139, 236.999 66.499 C 238.150 67.886, 239.500 68.052, 245.076 67.492 C 252.316 66.765, 253.613 67.423, 252.633 71.328 C 251.759 74.807, 246.753 79.280, 239.845 82.754 C 231.840 86.779, 226.268 91.668, 227.865 93.265 C 228.708 94.108, 232.252 93.068, 241.749 89.190 C 248.762 86.326, 255.963 83.568, 257.750 83.061 L 261 82.140 261 87.505 C 261 96.924, 263.803 101.320, 272.435 105.440 C 279.170 108.655, 280.394 109.795, 289.833 121.643 C 294.679 127.727, 299.744 132.930, 302.488 134.643 C 311.004 139.962, 315.091 143.074, 315.724 144.722 C 316.070 145.625, 315.561 148.419, 314.592 150.932 C 310.399 161.802, 309.966 163.317, 310.535 165.109 C 311.512 168.187, 314.478 167.290, 318.788 162.614 C 325.915 154.882, 327.726 148.910, 324.389 144.145 C 323.503 142.879, 319.740 139.897, 316.027 137.517 C 311.185 134.413, 306.542 129.983, 299.604 121.845 C 294.284 115.605, 286.785 106.900, 282.939 102.500 C 273.487 91.687, 272.616 89.922, 273.409 83.178 L 274.052 77.709 265.026 78.391 C 260.062 78.765, 256 78.783, 256 78.430 C 256 78.077, 257.125 76.452, 258.500 74.818 C 259.875 73.184, 261 70.712, 261 69.324 C 261 66.089, 256.016 61.376, 251.171 60.031 C 246.802 58.817, 246.593 58.824, 241.608 60.329 M 201.340 146.750 C 203.844 155.987, 206.185 162.861, 207.421 164.607 C 208.242 165.766, 212.326 168.912, 216.498 171.597 C 223.129 175.866, 224.392 177.172, 226.556 181.990 C 232.985 196.306, 233.757 196.962, 244.191 196.985 C 248.431 196.995, 251.178 197.458, 251.691 198.250 C 252.136 198.938, 252.758 204.225, 253.074 210 C 253.797 223.240, 255.449 227, 260.541 227 C 262.874 227, 265.820 225.812, 269.427 223.417 C 273.923 220.432, 275.164 220.017, 276.868 220.929 C 279.650 222.418, 280.413 227.463, 278.935 234.587 C 276.430 246.658, 276.563 249.048, 280.028 254.253 C 282.549 258.040, 283.184 260.021, 283.153 264.005 C 283.132 266.756, 282.798 269.567, 282.411 270.253 C 281.897 271.163, 282.084 271.148, 283.103 270.198 C 284.164 269.209, 284.507 265.605, 284.530 255.198 C 284.554 244.802, 285.002 240.081, 286.391 235.614 C 287.635 231.612, 288.082 227.804, 287.786 223.714 C 287.417 218.613, 286.914 217.323, 284.480 215.229 C 281.989 213.086, 280.928 212.831, 276.443 213.294 C 273.265 213.622, 269.088 215.062, 265.593 217.035 C 262.467 218.799, 259.639 219.973, 259.310 219.643 C 258.980 219.313, 259.257 215.038, 259.926 210.143 C 261.951 195.325, 258.364 188.694, 246.858 185.994 C 238.992 184.147, 238.121 183.455, 235.056 176.624 C 232.939 171.906, 230.679 169.010, 225.717 164.653 C 222.116 161.491, 217.255 156.423, 214.916 153.391 C 210.534 147.711, 206.678 145, 202.982 145 C 201.452 145, 200.997 145.485, 201.340 146.750 M 326.907 169.322 C 321.103 172.379, 314.039 181.273, 308.522 192.467 C 302.014 205.671, 300.777 213, 305.056 213 C 307.568 213, 310.693 208.454, 316.896 195.779 C 323.181 182.936, 329.076 176, 337.184 171.907 C 340.425 170.271, 342.808 168.498, 342.479 167.966 C 341.295 166.050, 331.500 166.902, 326.907 169.322 M 349.305 188.250 C 345.190 192.238, 336.229 201.831, 329.393 209.568 C 316.429 224.240, 307.968 231.447, 297 237.158 C 291.212 240.172, 290.500 240.869, 290.500 243.521 C 290.500 248.227, 294.663 247.985, 305.500 242.651 C 317.501 236.743, 320.245 234.438, 330.852 221.364 C 344.131 204.995, 363.156 185.692, 365.562 186.147 C 368.193 186.645, 370.495 196.216, 369.530 202.649 C 368.857 207.133, 367.904 208.225, 343.983 231.904 C 306.183 269.319, 305.019 271.408, 324.143 267.495 C 328.189 266.667, 337.974 265.348, 345.887 264.564 C 365.256 262.646, 369.555 260.476, 393.398 240.578 C 402.481 232.998, 405.620 229.125, 407.083 223.693 C 408.962 216.712, 405.266 207.723, 398.263 202.245 C 393.019 198.142, 360.436 181, 357.882 181 C 357.280 181, 353.420 184.262, 349.305 188.250 M 217.056 212.812 C 208.360 240.450, 204.050 256.293, 197.666 284.084 C 189.679 318.859, 187.439 329.772, 188.145 330.479 C 188.444 330.777, 195.733 331.312, 204.344 331.667 C 212.955 332.022, 220 332.666, 220 333.098 C 220 334.015, 211.206 340.834, 202.206 346.895 C 198.744 349.227, 189.058 354.689, 180.681 359.033 C 165.883 366.706, 156.960 373.151, 160.235 373.799 C 162.526 374.252, 183.234 366.389, 194.432 360.813 C 211.406 352.362, 226.764 340.677, 231.470 332.634 C 236.880 323.390, 262 251.639, 262 245.433 C 262 242.623, 261.317 241.626, 257.673 239.119 C 252.063 235.259, 248.378 230.345, 245.404 222.754 C 242.613 215.632, 240.533 213.166, 232.960 207.994 C 229.913 205.913, 226.800 203.463, 226.042 202.551 C 222.103 197.804, 221.597 198.382, 217.056 212.812 M 447.318 219.962 C 435.966 222.664, 417.991 236.031, 383.552 267.382 C 376.374 273.917, 368.363 280.876, 365.750 282.845 C 362.130 285.575, 361 287.072, 361 289.141 C 361 291.466, 359.776 292.617, 352.452 297.177 C 335.568 307.691, 324.622 315.156, 308.195 327.358 C 280.822 347.691, 254.791 364.145, 244.250 367.776 C 241.616 368.684, 241.003 369.427, 241.015 371.698 C 241.038 375.833, 241.902 376.627, 248.448 378.529 C 256.223 380.788, 264.738 380.046, 276.275 376.107 C 295.734 369.461, 313.003 357.979, 335.314 336.853 C 351.771 321.269, 359.693 314.632, 368.405 309.132 C 378.941 302.481, 380.567 301.965, 385.920 303.576 L 390.446 304.938 406.973 294.227 C 416.063 288.336, 427.859 280.242, 433.187 276.240 C 450.684 263.099, 464.441 247.505, 467.034 237.873 C 468.754 231.488, 464.202 223.320, 457.282 220.371 C 453.778 218.878, 452.153 218.811, 447.318 219.962 M 259.193 319.044 C 256.407 322.378, 255.934 323.668, 256.193 327.223 L 256.500 331.444 259.844 324.831 C 264.104 316.407, 263.783 313.550, 259.193 319.044 M 246.513 350.975 C 245.614 352.713, 245.081 354.668, 245.328 355.318 C 245.575 355.968, 246.528 354.764, 247.447 352.642 C 249.496 347.909, 248.769 346.612, 246.513 350.975 M 223.500 365.568 C 215.861 371.172, 182.506 388.006, 179.086 387.983 C 177.664 387.973, 173.125 387.081, 169 386 C 160.980 383.898, 154.376 383.476, 152.095 384.920 C 149.838 386.349, 150.608 391.283, 154.352 399.387 C 157.512 406.224, 158.440 407.328, 164.125 411.002 C 174.086 417.441, 178.513 418.314, 198.674 417.814 C 208.203 417.578, 216 417.716, 216 418.120 C 216 418.830, 213.198 421.195, 209.358 423.724 C 208.336 424.397, 209.750 424.032, 212.500 422.912 C 217.552 420.855, 224 415.563, 224 413.473 C 224 412.646, 222.307 412.694, 217.750 413.649 C 207.974 415.697, 186.471 415.402, 179.136 413.119 C 169.537 410.132, 156.158 398.986, 155.882 393.747 C 155.745 391.151, 156.036 388.659, 156.538 388.140 C 156.729 387.943, 161.524 389.169, 167.193 390.866 C 180.270 394.781, 187.089 395.835, 204.575 396.644 C 213.895 397.075, 219.296 396.933, 220.561 396.226 C 222.351 395.224, 222.314 395.127, 219.986 394.697 C 204.086 391.757, 200.439 390.868, 199.204 389.633 C 198.412 388.840, 198.057 387.716, 198.417 387.134 C 198.776 386.553, 203.791 383.800, 209.561 381.017 C 221.690 375.166, 230 368.120, 230 363.684 C 230 362.208, 229.887 361.037, 229.750 361.083 C 229.613 361.129, 226.800 363.147, 223.500 365.568 M 139 413.462 C 133.225 417.513, 125.870 422.661, 122.656 424.901 C 119.441 427.141, 114.941 429.478, 112.656 430.095 C 106.600 431.730, 95.787 431.475, 83.677 429.413 C 73.672 427.709, 72.848 427.702, 69.516 429.291 C 67.320 430.338, 65.324 432.350, 64.253 434.595 L 62.528 438.212 65.438 440.532 C 72.265 445.976, 97.753 454, 108.217 454 C 117.178 454, 122.048 452.457, 140 443.930 C 149.075 439.620, 158.488 435.778, 160.918 435.392 L 165.336 434.691 163.069 432.855 C 160.368 430.668, 150.461 427.487, 141.476 425.922 C 137.914 425.302, 135.013 424.503, 135.028 424.147 C 135.080 422.936, 140.730 416, 143.333 413.953 C 145.568 412.195, 150.723 405.911, 149.818 406.048 C 149.643 406.074, 144.775 409.411, 139 413.462" stroke="none" fill="black" fill-rule="evenodd"/>
</svg>