<svg xmlns="http://www.w3.org/2000/svg" width="512" height="512" viewBox="0 0 512 512" version="1.1">
	<path d="M 505.498 90.301 C 500.785 94.258, 479.641 112.309, 442 144.512 C 417.657 165.338, 410.705 170.605, 405.108 172.464 C 399.077 174.467, 395.294 178.481, 390.543 187.914 C 383.448 202.002, 366.762 214.123, 352.414 215.609 C 348.580 216.006, 340.696 215.431, 330 213.974 C 315.936 212.058, 309.610 211.753, 287.153 211.909 L 260.805 212.092 252.741 215.035 C 243.152 218.535, 233.721 219.869, 213.500 220.585 C 190.757 221.391, 189.127 221.952, 166.137 236.894 C 142.560 252.216, 130.495 257.156, 113.500 258.442 C 106.098 259.003, 15.480 261.956, 4.750 261.986 L 0 262 -0 271.138 L -0 280.275 5.250 279.684 C 8.137 279.359, 31.650 277.272, 57.500 275.046 C 116.880 269.932, 128.954 268.559, 137.560 265.941 C 148.195 262.705, 166.726 252.989, 183.096 242.067 C 193.071 235.411, 199.132 232.013, 201.696 231.640 C 203.788 231.335, 214.950 230.576, 226.500 229.954 C 239.735 229.240, 250.580 228.115, 255.829 226.911 C 265.819 224.619, 272.514 224.505, 281.841 226.467 C 285.676 227.273, 294.169 228.236, 300.715 228.606 C 315.676 229.451, 360.765 227.331, 367.500 225.466 C 374.576 223.505, 391.590 211.976, 404.525 200.376 C 410.589 194.938, 427.914 180.521, 443.025 168.339 C 458.136 156.158, 477.925 139.581, 487 131.503 C 496.075 123.425, 505.395 115.395, 507.711 113.658 L 511.922 110.500 511.961 98.250 C 511.982 91.513, 511.663 86.023, 511.250 86.051 C 510.837 86.080, 508.249 87.992, 505.498 90.301 M 487.634 199.124 C 475.058 208.499, 456.608 221.896, 446.634 228.894 C 435.541 236.677, 427.723 242.876, 426.500 244.859 C 420.430 254.700, 417.679 257.964, 411.466 262.702 C 401.061 270.636, 394.340 273.861, 386.378 274.740 L 379.500 275.500 378.982 280.649 C 378.118 289.230, 370.836 297.108, 358.172 303.162 C 352.958 305.654, 349.788 306.451, 343.667 306.809 C 332.582 307.457, 326.041 305.243, 312.803 296.364 C 305.433 291.420, 300.520 288.848, 297.004 288.094 C 286.993 285.947, 284 287.077, 284 293 C 284 301.708, 278.540 312.073, 268.044 323.294 C 259.872 332.029, 253.580 336.184, 249.110 335.796 C 243.370 335.297, 243.306 333.686, 248.505 320.540 C 252.847 309.563, 253.211 307.971, 253.146 300.228 L 253.077 291.827 257.858 285.590 C 271.665 267.576, 275.111 258.651, 271.419 250.471 C 269.678 246.614, 269.616 246.578, 269.252 249.201 C 269.045 250.686, 269.391 252.862, 270.019 254.036 C 271.516 256.833, 271.035 257.157, 267.078 256.022 C 262.486 254.705, 241.720 257.343, 238.003 259.715 C 236.465 260.697, 230.499 267.350, 224.746 274.500 C 218.993 281.650, 211.598 290.047, 208.311 293.160 C 194.327 306.408, 169.864 319.081, 145 325.957 C 139.396 327.507, 128.776 328.659, 103 330.513 C 60.040 333.604, 28.739 336.786, 3.750 340.603 L 0 341.176 0 380.070 L 0 418.964 9.750 415.420 C 32.482 407.158, 89.883 392.381, 111.824 389.143 C 126.631 386.957, 128.077 386.212, 131.241 379.140 L 133.191 374.780 137.165 378.640 C 141.369 382.724, 152 396.138, 152 397.360 C 152 397.756, 151.069 399.340, 149.931 400.879 C 141.167 412.734, 150.561 429.958, 165.811 429.994 C 167.976 430, 168.081 430.279, 167.462 434.408 C 166.522 440.673, 167.682 444.643, 171.779 449.177 C 176.707 454.632, 179.823 456, 187.319 456 L 193.737 456 194.278 460.038 C 195.283 467.525, 200.442 472.344, 208.798 473.597 C 212.474 474.148, 214.099 473.767, 219.125 471.175 L 225.090 468.098 232.181 471.799 C 238.126 474.902, 240.260 475.498, 245.392 475.485 C 252.595 475.466, 257.273 473.183, 260.840 467.946 C 263.678 463.779, 264.640 463.822, 275.196 468.589 C 284.384 472.737, 285.470 472.663, 297.554 467.052 C 307.716 462.335, 310.284 459.329, 309.831 452.687 L 309.500 447.849 312.500 448.468 C 326.762 451.409, 333.673 449.891, 341.889 442.013 C 347.926 436.225, 349.198 433.406, 349.114 426 L 349.052 420.500 354.077 420.850 C 360.612 421.305, 363.953 419.827, 369.294 414.116 C 375.135 407.872, 377.538 401.607, 376.095 396.385 C 375.455 394.071, 375.395 392.374, 375.946 392.188 C 379.152 391.107, 384.988 385.469, 387.840 380.695 C 394.989 368.732, 406.194 338.627, 410.887 318.780 C 412.021 313.983, 413.650 308.381, 414.507 306.330 C 416.905 300.590, 423.646 292.448, 430.393 287.142 C 436.455 282.375, 446.905 276, 448.657 276 C 449.159 276, 452.668 280.387, 456.453 285.750 C 472.226 308.093, 473.152 308.983, 478 306.457 C 479.375 305.740, 484.775 301.709, 490 297.498 C 495.225 293.288, 502.304 288.191, 505.731 286.172 L 511.962 282.500 511.981 232.250 C 511.991 204.613, 511.663 182.017, 511.250 182.038 C 510.837 182.060, 500.210 189.748, 487.634 199.124 M 303.099 321.160 C 307.297 333.234, 308.943 336.364, 311.937 337.967 C 313.003 338.537, 319.401 340.387, 326.155 342.079 C 341.753 345.986, 343.275 346.666, 350.308 352.874 C 353.503 355.693, 356.705 358, 357.423 358 C 360.003 358, 363.661 361.950, 368.678 370.156 C 371.484 374.745, 374.669 379.302, 375.755 380.283 C 377.672 382.013, 377.768 381.975, 379.001 378.997 C 380.951 374.289, 379.676 366.047, 375.900 358.963 C 368.020 344.179, 349.532 331.427, 327.500 325.578 C 317.178 322.838, 314.024 321.196, 305.518 314.135 C 302.778 311.861, 300.240 310, 299.878 310 C 299.515 310, 300.965 315.022, 303.099 321.160 M 295.888 352.500 C 292.630 354.270, 290.610 358.950, 291.452 362.780 C 292.453 367.337, 299.197 373.513, 313.396 382.874 C 324.768 390.372, 327.047 391.500, 330.816 391.500 C 334.534 391.500, 335.634 390.976, 338.516 387.831 C 342.875 383.074, 343.859 378.156, 341.322 373.811 C 339.238 370.244, 323.216 358.763, 313.651 353.983 C 307.005 350.663, 300.299 350.102, 295.888 352.500 M 274.001 385.164 C 263.267 389.270, 264.845 398.895, 278.085 410.072 C 291.329 421.252, 300.811 427, 306.010 427 C 312.426 427, 318.189 421.841, 319.484 414.939 C 320.365 410.238, 318.097 407.505, 308.267 401.422 C 303.995 398.779, 298.240 394.964, 295.477 392.944 C 285.932 385.967, 278.726 383.356, 274.001 385.164 M 192.876 404.255 C 189.710 406.963, 180 418.774, 180 419.917 C 180 421.527, 184.238 426.072, 187.138 427.572 C 188.767 428.414, 190.962 428.830, 192.015 428.495 C 193.996 427.866, 203.924 417.034, 205.768 413.489 C 208.226 408.764, 203.715 401.994, 198.115 402.005 C 196.677 402.008, 194.319 403.020, 192.876 404.255 M 242.020 411.752 C 238.366 413.587, 234 419.138, 234 421.947 C 234 422.920, 235.409 424.108, 237.431 424.839 C 243.070 426.878, 247.680 433.033, 247.081 437.724 C 246.910 439.061, 258.069 447.677, 261.847 449.125 C 267.445 451.270, 278 445.084, 278 439.658 C 278 438.034, 276.691 435.999, 274.254 433.831 C 272.193 431.999, 266.378 426.340, 261.332 421.255 C 253.425 413.287, 248.994 409.995, 246.185 410.002 C 245.808 410.002, 243.934 410.790, 242.020 411.752" stroke="none" fill="black" fill-rule="evenodd"/>
</svg>