<svg xmlns="http://www.w3.org/2000/svg" width="512" height="512" viewBox="0 0 512 512" version="1.1">
	<path d="M 251.770 8.714 C 249.382 9.077, 248.788 9.948, 247.020 15.670 C 245.909 19.267, 245 22.596, 245 23.068 C 245 23.539, 244.068 26.417, 242.928 29.462 C 241.244 33.965, 240.428 35, 238.565 35 C 236.253 35, 235.397 33.341, 227.546 13.634 L 226.005 9.769 220.253 10.481 C 217.089 10.873, 214.357 11.330, 214.183 11.497 C 214.009 11.664, 212.659 17.808, 211.183 25.150 C 208.758 37.217, 208.286 38.530, 206.277 38.816 C 204.356 39.089, 203.337 37.686, 198.777 28.490 L 193.500 17.849 185.500 18.496 C 173.554 19.462, 174.548 18.363, 173.057 32.259 C 172.335 38.991, 171.433 45.346, 171.052 46.379 C 170.416 48.106, 156.728 54, 153.354 54 C 152.662 54, 149.262 52.051, 145.798 49.669 C 132.877 40.784, 133.051 40.850, 128.227 43.010 L 124 44.902 124 57.083 L 124 69.264 120.508 72.557 C 118.588 74.368, 114.425 76.821, 111.258 78.007 C 104.782 80.432, 101.932 80.018, 92.608 75.299 L 87.716 72.822 84.805 75.733 L 81.895 78.644 84.384 86.072 C 85.753 90.157, 87.185 95.864, 87.566 98.752 C 88.258 104, 88.254 104.009, 83.612 108.651 L 78.966 113.297 66.062 112.616 C 53.435 111.949, 53.125 111.983, 51.580 114.190 C 50.711 115.430, 50 116.716, 50 117.047 C 50 117.378, 52.517 120.990, 55.593 125.074 C 62.691 134.500, 63.368 136.215, 61.600 140.298 C 58.858 146.629, 58.300 146.916, 46.500 148.057 C 32.559 149.404, 31.413 149.888, 29.856 155.086 C 28.639 159.148, 28.686 159.330, 31.552 161.715 C 45.753 173.526, 46.212 174.056, 45.500 177.850 C 44.626 182.513, 42.421 186.707, 40.240 187.861 C 38.922 188.557, 19.178 193, 17.399 193 C 17.222 193, 16.384 195.335, 15.536 198.190 C 14.316 202.300, 14.256 203.546, 15.248 204.182 C 15.936 204.623, 20.259 207.107, 24.854 209.700 C 34.360 215.067, 35.486 216.826, 34.502 224.776 C 33.722 231.081, 33.013 231.649, 20.551 235.943 C 15.628 237.639, 11.248 239.584, 10.816 240.264 C 10.384 240.944, 10.024 243.578, 10.015 246.117 L 10 250.734 18.251 253.849 C 30.338 258.410, 31 259.022, 31 265.625 L 31 271.137 21.500 275.576 L 12 280.015 12 285.410 L 12 290.805 19.250 292.955 C 36.213 297.986, 36.071 297.879, 37.371 306.625 C 38.159 311.932, 36.289 314.395, 26.396 321.070 C 18.590 326.337, 18.255 327.006, 20.412 333 C 21.561 336.193, 22.103 336.558, 26.586 337.162 C 29.289 337.527, 34.505 337.864, 38.177 337.912 C 44.148 337.991, 45.074 338.279, 46.927 340.635 C 50.701 345.432, 49.762 348.427, 41.966 356.467 L 34.933 363.721 36.679 366.764 C 38.712 370.306, 41.370 370.972, 53.534 370.989 C 61.337 371, 61.618 371.084, 63.284 373.904 C 64.228 375.502, 65 377.739, 65 378.876 C 65 380.013, 62.041 384.821, 58.425 389.561 C 51.977 398.012, 51.886 398.217, 53.675 400.217 C 55.394 402.137, 56.309 402.225, 69.380 401.717 L 83.260 401.178 85.654 403.761 C 86.971 405.182, 88.279 407.279, 88.561 408.422 C 88.842 409.565, 87.257 415.308, 85.037 421.186 C 82.816 427.063, 81 432.259, 81 432.733 C 81 433.206, 82.688 435.206, 84.750 437.177 L 88.500 440.759 97 435.775 C 107.291 429.740, 110.308 428.727, 113.565 430.212 C 116.568 431.580, 116.568 431.643, 113.500 439.192 C 112.125 442.576, 111 445.492, 111 445.672 C 111 445.853, 115.500 446, 121 446 L 131 446 131 453.276 C 131 461.533, 132.766 477.173, 133.808 478.146 C 134.189 478.501, 139.663 474.911, 145.974 470.169 C 158.378 460.846, 160.821 460.067, 168.232 463.065 C 172.641 464.848, 172.955 465.496, 173.060 473 C 173.110 476.575, 173.679 483.325, 174.325 488 L 175.500 496.500 181.865 496.801 C 189.342 497.154, 189.600 496.981, 197.998 485.981 C 205.110 476.665, 206.378 475.527, 207.740 477.238 C 208.292 477.932, 209.646 483.035, 210.749 488.577 C 212.972 499.753, 216.048 507.697, 218.520 508.646 C 221.532 509.802, 227.530 502.458, 232.634 491.362 C 236.640 482.654, 237.763 481, 239.672 481 C 241.624 481, 242.246 482.015, 244.111 488.250 C 248.215 501.969, 251.010 507.964, 253.608 508.616 C 258.799 509.919, 260.932 507.096, 266.103 492.071 C 269.272 482.862, 270.030 481.500, 271.986 481.500 C 273.860 481.500, 274.873 482.990, 278.107 490.500 C 283.137 502.183, 286.795 507.408, 290.227 507.810 C 292.109 508.031, 293.309 507.452, 294.375 505.810 C 295.787 503.638, 298.849 492.075, 300.682 482 C 301.371 478.208, 301.893 477.455, 304 477.212 C 306.163 476.963, 307.377 478.245, 313 486.712 L 319.500 496.500 326.661 496.792 C 333.781 497.082, 333.826 497.068, 334.421 494.292 C 335.589 488.847, 336.939 476.420, 336.969 470.833 L 337 465.165 341.581 463.416 C 347.846 461.023, 351.286 461.219, 355.187 464.189 C 363.910 470.831, 375.982 478.831, 376.332 478.203 C 377.561 475.997, 378.346 470.099, 378.889 459 L 379.500 446.500 389.750 446.612 C 399.410 446.717, 400 446.607, 400 444.700 C 400 443.586, 398.838 440.694, 397.419 438.271 C 394.376 433.079, 394.724 431.439, 399.073 430.484 C 401.730 429.900, 404.042 430.655, 412.561 434.890 C 418.215 437.700, 423.026 440, 423.253 440 C 423.480 440, 425.073 438.248, 426.795 436.106 L 429.924 432.212 427.361 424.356 C 425.951 420.035, 424.363 415.686, 423.832 414.691 C 422.476 412.151, 423.721 407.485, 426.697 403.948 L 429.225 400.944 443.369 401.612 L 457.512 402.280 458.901 399.685 C 460.227 397.208, 460.010 396.719, 454.145 388.951 C 447.623 380.314, 447.105 378.632, 449.526 373.950 L 451.051 371 461.871 371 C 473.352 371, 474.077 370.727, 476.849 365.359 C 477.828 363.461, 477.158 362.325, 470.977 355.404 C 467.140 351.106, 464 346.993, 464 346.263 C 464 345.533, 464.641 343.402, 465.424 341.527 C 467.038 337.665, 469.953 336.537, 481 335.496 C 491.553 334.501, 491.804 334.388, 493.120 329.993 C 494.539 325.258, 493.918 324.338, 484.500 317.223 C 476.381 311.090, 475.920 310.407, 476.633 305.580 C 477.639 298.772, 479.074 297.473, 489.386 294.038 C 494.591 292.304, 499.362 290.269, 499.986 289.516 C 500.611 288.764, 500.982 286.202, 500.811 283.824 L 500.500 279.500 491.500 275 L 482.500 270.500 482.205 265.446 C 481.842 259.245, 482.873 258.147, 492.421 254.560 C 496.228 253.131, 499.940 251.464, 500.671 250.858 C 502.491 249.348, 502.401 240.544, 500.547 238.690 C 499.748 237.891, 495.586 235.984, 491.297 234.453 C 487.009 232.921, 482.739 231.022, 481.809 230.233 C 479.985 228.684, 478.393 219.489, 479.400 216.316 C 479.731 215.272, 484.054 211.977, 489.007 208.996 L 498.011 203.575 497.366 200.038 C 496.017 192.646, 495.708 192.354, 487.319 190.550 C 472.748 187.416, 471.323 186.597, 469.142 180.101 C 466.955 173.591, 467.475 172.467, 475.997 165.261 C 480.396 161.543, 483.996 158.200, 483.997 157.833 C 483.999 157.466, 483.145 155.170, 482.099 152.732 L 480.198 148.297 468.849 147.588 C 455.887 146.777, 453.718 145.822, 450.987 139.723 C 448.850 134.949, 448.907 134.782, 456.138 124.765 C 458.812 121.061, 461 117.558, 461 116.980 C 461 116.402, 460.281 114.832, 459.402 113.491 C 457.809 111.060, 457.759 111.054, 445.350 111.683 L 432.896 112.314 428.448 107.949 C 425.073 104.637, 424 102.833, 424 100.473 C 424 96.626, 426.570 87.777, 429.169 82.674 L 431.118 78.848 427.500 75.435 L 423.882 72.023 420.191 73.626 C 412.136 77.124, 404.258 79.282, 401.794 78.663 C 398.062 77.726, 389.690 71.691, 388.265 68.910 C 387.507 67.431, 387.024 62.214, 387.015 55.402 L 387 44.304 383.087 42.539 C 378.656 40.541, 379.396 40.253, 368.165 48.349 L 359.830 54.357 351.393 51.609 C 345.880 49.814, 342.463 48.105, 341.535 46.681 C 340.708 45.411, 339.684 39.519, 339.085 32.577 C 338.518 26.020, 337.693 20.293, 337.250 19.850 C 336.808 19.408, 332.624 18.752, 327.953 18.393 C 318.114 17.637, 319.004 17.035, 313.018 28.500 C 310.721 32.900, 308.203 37.159, 307.421 37.964 C 304.853 40.611, 303.093 37.057, 300.561 24.109 C 299.240 17.353, 297.898 11.564, 297.578 11.245 C 297.259 10.926, 294.523 10.459, 291.497 10.208 L 285.997 9.752 283.901 14.626 C 276.026 32.938, 274.896 34.665, 271.610 33.404 C 270.272 32.891, 266.464 23.365, 263.852 14 C 263.162 11.525, 262.125 9.169, 261.549 8.765 C 260.468 8.008, 256.553 7.988, 251.770 8.714 M 263.769 45.963 C 272.843 48.091, 280.977 52.026, 288.175 57.770 C 290.747 59.821, 296.553 64.425, 301.079 68 C 313.703 77.973, 315.329 79.699, 314.534 82.281 C 312.675 88.324, 312.782 93.509, 314.816 96.011 C 316.730 98.365, 317.344 98.491, 326.170 98.340 C 331.301 98.253, 339.775 97.467, 345 96.594 C 350.225 95.722, 356.747 95.006, 359.492 95.004 C 364.388 95, 364.622 95.143, 371.579 102.352 C 380.678 111.782, 384 118.259, 384 126.574 C 384 135.069, 384.578 135.418, 399.358 135.861 C 408.074 136.123, 412.066 136.652, 413.779 137.775 C 418.701 141, 428.444 158.018, 434.805 174.500 C 446.993 206.079, 446.793 205.657, 453.766 214.349 C 465.868 229.432, 467.472 235.370, 466.771 262.500 C 466.303 280.661, 465.012 285.496, 458.064 295.104 C 455.917 298.072, 452.549 302.756, 450.577 305.513 C 446.717 310.913, 444.224 319.771, 445.327 324.165 C 445.982 326.778, 451.889 334.853, 453.215 334.948 C 454.135 335.015, 459.307 318.474, 461.887 307.216 C 468.853 276.824, 469.272 274.326, 469.756 260.339 C 471.781 201.862, 449.476 146.275, 407.024 104 C 395.437 92.462, 381.875 81.345, 371.118 74.569 C 363.868 70.002, 335.533 58.447, 322.122 54.589 C 312.165 51.724, 291.942 48.010, 286.151 47.983 C 284.143 47.973, 279.575 47.346, 276 46.588 C 272.425 45.831, 266.350 44.944, 262.500 44.617 L 255.500 44.024 263.769 45.963 M 210.628 51.101 C 202.966 52.220, 180.453 58.158, 171.146 61.515 C 167.119 62.968, 161.842 64.351, 159.419 64.588 C 153.284 65.189, 145.385 69.092, 139.614 74.375 C 134.368 79.177, 133.929 82, 138.428 82 C 140.502 82, 141.123 81.288, 142.132 77.750 C 142.799 75.412, 143.978 72.750, 144.751 71.834 C 146.793 69.416, 156.327 65.794, 159.651 66.174 C 162.464 66.496, 162.504 66.593, 162.796 73.855 C 163.116 81.799, 161.796 85.295, 158.027 86.492 C 156.612 86.941, 156 88, 156 90.002 C 156 98.695, 159.791 100.383, 178.126 99.857 C 187.855 99.578, 191.174 99.118, 193.249 97.758 C 196.900 95.364, 197.807 90.117, 195.467 84.927 C 193.430 80.410, 194.238 77.332, 198.185 74.573 C 205.161 69.696, 215.940 61.753, 223.048 56.250 L 231.123 50 223.812 50.122 C 219.790 50.189, 213.858 50.630, 210.628 51.101 M 242.609 61.093 C 226.564 66.611, 217.504 76.889, 212.935 94.756 C 210.352 104.855, 210.469 109.457, 213.642 122.563 L 216.321 133.625 212.062 145.563 C 206.130 162.191, 206.702 161.546, 198.249 161.155 C 190.048 160.776, 187.081 161.976, 180.984 168.135 L 176.913 172.246 168.636 171.812 C 161.213 171.422, 159.570 170.945, 152.726 167.189 C 148.529 164.885, 144.256 163, 143.231 163 C 142.206 163, 140.021 164.522, 138.374 166.382 L 135.379 169.765 124.940 169.317 C 119.198 169.070, 113.955 168.694, 113.290 168.481 C 112.496 168.227, 111.980 165.095, 111.790 159.377 C 111.591 153.412, 111.097 150.528, 110.224 150.239 C 108.432 149.645, 98.767 170.359, 93.852 185.329 C 91.659 192.005, 89.706 197.627, 89.511 197.823 C 89.315 198.018, 87.208 198.598, 84.828 199.113 C 77.226 200.755, 75.158 201.991, 73.965 205.607 C 72.728 209.353, 73.475 214.650, 75.577 217.040 C 76.751 218.377, 76.208 219.145, 71.482 222.836 C 59.385 232.284, 53.652 246.859, 56.071 262.017 C 58.035 274.331, 63.893 283.928, 73.473 290.526 C 79.274 294.521, 79.862 295.391, 77.646 296.700 C 75.639 297.886, 74 301.487, 74 304.712 C 74 310.368, 77.874 313.239, 87.173 314.477 L 91.846 315.099 95.489 326.800 C 101.170 345.046, 108.677 358.990, 111.369 356.298 C 111.716 355.951, 112 350.342, 112 343.833 L 112 332 123.092 332 C 132.670 332, 134.532 332.273, 136.727 334 C 139.996 336.572, 141.833 336.507, 151.288 333.487 C 157.710 331.436, 161.083 331, 170.519 331 L 181.962 331 182.550 333.750 C 183.672 338.994, 184.940 340.932, 189.014 343.628 C 192.368 345.848, 194.557 346.421, 201.129 346.801 C 210.503 347.344, 210.027 346.745, 212.522 361.124 C 214.083 370.126, 214.072 370.405, 211.945 375.349 C 207.706 385.202, 206.593 390.300, 206.671 399.500 C 206.950 432.662, 238.941 455.458, 269.881 444.542 C 278.838 441.382, 290.656 430.560, 295.423 421.152 C 301.927 408.317, 302.376 396.658, 296.974 380.923 C 295.338 376.160, 294.008 371.191, 294.019 369.881 C 294.036 367.721, 298.588 349.079, 299.263 348.404 C 299.420 348.247, 303.240 347.656, 307.754 347.090 C 320.429 345.501, 326.084 341.829, 327.610 334.198 L 328.250 331 340.375 331.024 C 350.953 331.044, 353.265 331.363, 358.500 333.519 C 365.897 336.566, 371.029 336.731, 373.500 334 C 375.114 332.216, 376.580 332, 387.048 332 C 396.829 332, 398.887 332.264, 399.393 333.582 C 399.727 334.452, 400 340.077, 400 346.082 C 400 354.325, 400.316 357, 401.289 357 C 404.007 357, 411.020 342.597, 419.399 319.802 C 421.014 315.408, 421.403 315.062, 425.405 314.462 C 427.759 314.109, 431.443 312.837, 433.592 311.634 C 437.172 309.632, 437.526 309.053, 437.804 304.733 C 438.062 300.737, 437.703 299.612, 435.449 297.358 C 433.067 294.976, 432.964 294.599, 434.469 293.757 C 439.206 291.106, 446.836 283.801, 450.575 278.337 C 462.127 261.457, 456.986 236.747, 438.949 222.459 L 434.048 218.578 436.024 216.474 C 437.383 215.028, 438 212.977, 438 209.908 C 438 202.670, 435.261 200.298, 424.909 198.569 L 421.318 197.969 417.513 185.734 C 411.148 165.264, 403.851 150, 400.432 150 C 399.291 150, 399 151.909, 399 159.393 C 399 166.562, 398.665 168.914, 397.587 169.328 C 396.810 169.626, 391.193 169.607, 385.105 169.286 C 374.847 168.745, 373.920 168.526, 372.465 166.306 C 371.602 164.989, 369.730 163.468, 368.306 162.926 C 366.105 162.089, 364.726 162.540, 359.108 165.931 C 351.508 170.519, 343.796 172.491, 336.731 171.655 C 332.839 171.194, 330.914 170.253, 327.591 167.191 C 321.993 162.030, 315.496 159.602, 308.966 160.229 L 303.896 160.716 301.799 156.608 C 300.645 154.349, 298.213 148.080, 296.393 142.679 L 293.084 132.857 296.542 122.301 C 300.891 109.026, 300.957 104.013, 296.951 91.504 C 292.005 76.065, 282.540 65.499, 269.574 60.941 C 262.111 58.318, 250.487 58.384, 242.609 61.093 M 246.618 62.054 C 240.915 63.478, 231.650 68.692, 227.418 72.858 C 218.285 81.850, 214.859 91.427, 216.929 102.181 C 219.546 115.778, 226.012 124.911, 236.771 130.208 C 243.160 133.353, 243.972 133.500, 254.979 133.500 C 265.589 133.500, 266.954 133.277, 272.238 130.683 C 279.857 126.943, 286.642 119.971, 290.418 112.003 C 293.111 106.321, 293.500 104.424, 293.500 96.979 C 293.500 89.364, 293.150 87.747, 290.208 81.771 C 284.318 69.807, 271.885 61.887, 258.185 61.373 C 253.958 61.215, 248.753 61.521, 246.618 62.054 M 352.831 74.650 C 351.066 78.640, 350.936 79.842, 351.915 83.111 C 352.869 86.295, 353.669 87.092, 356.778 87.955 C 358.825 88.524, 361.203 88.991, 362.061 88.994 C 364.290 89.002, 367.364 92.131, 374.192 101.340 C 383.353 113.695, 385.415 118.253, 385.461 126.250 C 385.508 134.384, 386.615 134.807, 390.906 128.329 C 395.558 121.305, 395.152 118.460, 387.892 107.254 C 382.662 99.181, 381.670 96.899, 380.985 91.379 C 380.545 87.833, 379.476 83.849, 378.608 82.525 C 375.591 77.920, 362.144 70.069, 357.194 70.022 C 355.402 70.005, 354.428 71.038, 352.831 74.650 M 246.500 78.867 C 233.583 84.756, 228.432 96.998, 234.017 108.536 C 240.795 122.536, 262.002 125.137, 273.197 113.342 C 283.435 102.555, 279.544 84.302, 265.782 78.553 C 260.749 76.450, 251.470 76.602, 246.500 78.867 M 122.427 88.299 C 109.981 97.212, 92.337 117.110, 78.845 137.449 C 66.343 156.296, 56.020 178.986, 51.071 198.500 C 48.334 209.289, 45.708 225.041, 46.512 225.845 C 46.870 226.203, 48.121 225.147, 49.291 223.498 C 50.462 221.849, 54.408 217.350, 58.060 213.500 C 64.520 206.690, 64.844 206.092, 69.972 191.500 C 77.815 169.181, 88.910 148.233, 96.973 140.521 C 99.967 137.657, 100.532 137.521, 111.515 136.999 C 117.801 136.701, 123.432 135.968, 124.029 135.371 C 124.645 134.755, 124.953 131.952, 124.742 128.893 L 124.370 123.500 124.185 129.250 C 123.986 135.430, 122.604 136.686, 120.884 132.250 C 119.187 127.872, 120.588 120.677, 125.076 110.732 C 130.192 99.396, 130.871 95.258, 128.484 89.965 C 127.501 87.784, 126.427 86.022, 126.098 86.049 C 125.769 86.076, 124.117 87.089, 122.427 88.299 M 159.035 94.691 C 159.016 95.896, 159.480 97.179, 160.067 97.541 C 161.791 98.607, 161.934 97.673, 160.454 94.998 C 159.120 92.589, 159.070 92.578, 159.035 94.691 M 157.604 118.038 C 153.716 119.202, 149.289 123.594, 147.967 127.600 C 146.660 131.559, 147.996 137.454, 151.092 141.389 C 157.133 149.070, 169.312 148.801, 175.240 140.856 C 178.264 136.804, 179.084 132.887, 177.847 128.407 C 175.477 119.826, 166.683 115.322, 157.604 118.038 M 335.001 118.123 C 328.494 120.718, 324.507 127.226, 325.474 133.674 C 326.738 142.106, 335.103 148.141, 343.374 146.590 C 351.313 145.100, 357.154 135.999, 355.090 128.334 C 352.893 120.176, 342.764 115.028, 335.001 118.123 M 158.219 119.256 C 153.072 120.905, 148.999 126.222, 149.004 131.285 C 149.011 139.527, 154.796 145, 163.500 145 C 172.160 145, 177 140.310, 177 131.918 C 177 126.265, 173.954 121.599, 168.961 119.601 C 164.461 117.801, 162.915 117.751, 158.219 119.256 M 338.500 118.697 C 330.821 120.290, 326.741 124.695, 326.593 131.551 C 326.307 144.806, 345.138 149.876, 352.563 138.543 C 354.643 135.370, 354.635 129.128, 352.547 125.090 C 350.311 120.768, 343.489 117.662, 338.500 118.697 M 337.255 123.128 C 327.011 126.053, 329.570 141, 340.315 141 C 345.468 141, 350.896 133.708, 349.597 128.532 C 348.494 124.137, 342.663 121.583, 337.255 123.128 M 155.800 126.046 C 153.190 128.656, 152.837 129.608, 153.337 132.690 C 154.468 139.661, 160.272 143.167, 166.425 140.596 C 170.799 138.768, 173.410 133.998, 172.549 129.407 C 171.741 125.105, 168.671 123, 163.201 123 C 159.681 123, 158.262 123.584, 155.800 126.046 M 396.272 157 C 396.272 159.475, 396.467 160.488, 396.706 159.250 C 396.944 158.012, 396.944 155.988, 396.706 154.750 C 396.467 153.512, 396.272 154.525, 396.272 157 M 239.785 155.551 C 224.122 157.990, 208.088 164.187, 195.238 172.769 C 171.627 188.537, 157.796 206.345, 150.353 230.562 C 147.820 238.804, 147.604 240.823, 147.587 256.500 C 147.569 272.982, 147.666 273.790, 150.759 283.025 C 157.258 302.426, 171.121 320.337, 191 335.016 C 224.343 359.636, 267.641 362.368, 307.309 342.355 C 313.360 339.302, 329.577 327.496, 335.832 321.590 C 358.304 300.371, 368.160 270.553, 362.566 240.703 C 358.379 218.356, 349.922 202.711, 333.775 187.438 C 305.881 161.056, 273.967 150.228, 239.785 155.551 M 239.657 168.528 C 210.366 174.077, 182.776 196.387, 172.073 223.176 C 165.785 238.914, 164.251 262.978, 168.513 279 C 176.141 307.669, 199.758 329.996, 231.584 338.625 C 237.138 340.131, 241.849 340.487, 255.500 340.433 C 271.025 340.372, 273.281 340.130, 281.500 337.643 C 309.955 329.035, 328.035 313.620, 338.753 288.830 C 343.222 278.492, 344.964 269.571, 344.969 257 C 344.978 235.973, 338.730 217.562, 326.277 201.917 C 314.641 187.298, 295.167 174.565, 277.345 169.924 C 266.892 167.201, 249.968 166.574, 239.657 168.528 M 241.342 179.411 C 214.898 184.463, 195.064 199.336, 184.057 222.367 C 178.166 234.691, 176.671 242.412, 177.219 257.688 C 177.601 268.341, 178.157 271.916, 180.522 278.901 C 186.445 296.404, 200.555 312.363, 217.208 320.397 C 231.508 327.296, 236.927 328.455, 255 328.476 C 272.111 328.497, 280.331 326.850, 292.487 320.965 C 317.162 309.021, 334 282.477, 334 255.523 C 334 220.394, 311.484 190.512, 277.829 180.974 C 268.337 178.284, 251.102 177.545, 241.342 179.411 M 248 205.012 C 241.391 206.153, 234.051 209.195, 227.638 213.452 C 203.752 229.307, 199.866 262.951, 219.411 284.689 C 228.886 295.228, 240.520 300.240, 255.500 300.235 C 283.659 300.227, 305 279.615, 305 252.424 C 305 234.266, 294.261 217.495, 277.515 209.500 C 267.192 204.572, 258.343 203.227, 248 205.012 M 245.746 214.031 C 235.071 216.703, 224.238 225.220, 219.426 234.722 C 216.696 240.113, 216.500 241.270, 216.500 252 C 216.500 262.725, 216.697 263.889, 219.420 269.266 C 223.061 276.456, 231.210 284.272, 238.747 287.804 C 243.902 290.220, 245.643 290.500, 255.500 290.500 C 265.877 290.500, 266.876 290.316, 273.129 287.256 C 281.388 283.216, 288.904 276.183, 292.640 269 C 295.302 263.880, 295.500 262.705, 295.500 252 C 295.500 241.301, 295.299 240.102, 292.609 234.793 C 288.686 227.051, 281.834 220.372, 274 216.657 C 268.450 214.024, 266.185 213.538, 258.500 213.332 C 253.550 213.199, 247.811 213.514, 245.746 214.031 M 85.500 217.213 C 69.750 223.977, 61.007 233.917, 57.998 248.479 C 54.309 266.337, 63.675 284.212, 81.460 293.254 C 100.592 302.981, 125.789 292.993, 135.471 271.844 C 145.463 250.018, 131.330 223.007, 106.540 216.552 C 98.374 214.426, 91.485 214.642, 85.500 217.213 M 402.798 216.931 C 394.871 219.465, 389.099 223.061, 383.067 229.220 C 374.476 237.993, 370.031 250.318, 371.529 261.207 C 373.252 273.742, 383.938 287.245, 397 293.396 C 402.888 296.168, 404.446 296.459, 413.546 296.478 C 423.180 296.499, 423.908 296.344, 431.275 292.706 C 440.313 288.243, 447.663 281.447, 450.863 274.597 C 458.406 258.452, 454.823 240.665, 441.355 227.394 C 432.493 218.661, 424.814 214.984, 415.590 215.054 C 411.631 215.084, 405.982 215.913, 402.798 216.931 M 247.332 226.791 C 238.566 229.922, 231.636 236.438, 229.138 243.899 C 228.512 245.769, 228 249.880, 228 253.035 C 228 272.094, 249.562 283.843, 267.686 274.659 C 274.119 271.399, 280.363 264.345, 282.004 258.484 C 283.510 253.106, 282.837 244.520, 280.566 240.128 C 274.570 228.533, 259.449 222.464, 247.332 226.791 M 90.491 238.803 C 85.289 241.247, 80.275 247.017, 79.427 251.535 C 78.200 258.078, 79.458 264.759, 82.678 268.789 C 87.126 274.358, 91.307 276.175, 98.713 275.759 C 103.815 275.472, 105.602 274.871, 108.713 272.397 C 123.095 260.955, 117.535 238.979, 99.858 237.399 C 95.918 237.047, 93.439 237.419, 90.491 238.803 M 407 238.594 C 394.514 244.003, 390.652 258.008, 398.682 268.759 C 403.552 275.280, 414.345 277.972, 422.298 274.649 C 430.115 271.383, 435.291 260.509, 433.029 252.107 C 430.019 240.930, 417.096 234.221, 407 238.594 M 43.240 256.250 C 43.632 266.629, 44.765 274.593, 48.468 293 C 52.762 314.346, 59.388 337.788, 61.813 340.213 C 63.018 341.418, 68.579 338.670, 69.852 336.240 C 70.459 335.082, 69.883 330.127, 68.132 321.435 C 65.555 308.641, 65.383 308.215, 59.856 300.935 C 49.128 286.804, 46.085 277.687, 45.273 257.250 C 44.943 248.959, 44.295 243, 43.723 243 C 43.102 243, 42.924 247.892, 43.240 256.250 M 433.026 343.751 C 428.761 353.266, 418.749 368.463, 415.224 370.773 C 413.115 372.154, 410.775 372.415, 402.919 372.146 C 397.065 371.945, 392.395 372.253, 391.143 372.924 C 389.908 373.584, 388.465 376.061, 387.582 379.037 C 384.911 388.031, 380.094 395.673, 373.381 401.567 C 368.511 405.842, 366.782 408.103, 365.923 411.316 C 364.430 416.902, 363.366 418, 359.446 418 C 356.944 418, 355.638 417.300, 354.094 415.132 C 350.199 409.662, 341.286 408.278, 327.777 411.046 C 316.728 413.309, 314.396 414.760, 312.984 420.247 C 310.165 431.203, 308.846 433.747, 302.238 440.988 C 289.712 454.712, 273.434 462.704, 255.881 463.749 C 245.730 464.354, 239.377 463.088, 229.500 458.494 C 220.893 454.491, 218.498 452.685, 206.504 441.159 C 197.233 432.249, 197 431.914, 197 427.480 C 197 424.981, 196.363 421.410, 195.584 419.546 C 193.206 413.855, 190.921 413.050, 175.118 412.331 L 160.920 411.685 157.592 414.911 C 154.813 417.605, 153.628 418.084, 150.405 417.818 C 146.890 417.528, 146.408 417.129, 145.015 413.342 C 143.960 410.474, 140.644 406.439, 134.333 400.342 C 125.299 391.613, 125.148 391.388, 122.531 382.753 C 120.833 377.150, 119.207 373.646, 118.006 373.003 C 116.975 372.452, 111.874 372, 106.669 372 C 97.210 372, 97.206 371.999, 94.300 368.689 C 92.701 366.868, 89.268 361.693, 86.670 357.189 C 83.254 351.268, 81.396 349, 79.958 349 C 77.394 349, 74.009 354.512, 74.004 358.696 C 73.996 364.982, 87.018 386.558, 99.954 401.695 C 125.305 431.358, 168.899 456.653, 208.500 464.677 C 215.992 466.194, 222.359 466.498, 246.500 466.488 C 287.797 466.471, 308.294 464.001, 330.148 456.407 C 356.504 447.248, 387.103 427.907, 407.509 407.507 C 418.588 396.431, 430.973 379.574, 437.588 366.565 C 442.301 357.298, 443.056 355.079, 442.527 352.062 C 441.643 347.020, 437.966 336, 437.168 336.001 C 436.801 336.002, 434.937 339.489, 433.026 343.751 M 395.070 341.191 C 395.032 343.771, 395.450 346.160, 396 346.500 C 397.221 347.255, 397.221 341.342, 396 338.500 C 395.351 336.990, 395.123 337.650, 395.070 341.191 M 115.810 340.840 C 115.559 342.552, 115.693 344.503, 116.108 345.175 C 117.270 347.055, 118.358 341.462, 117.224 339.435 C 116.426 338.010, 116.191 338.244, 115.810 340.840 M 340.685 353.021 C 329.220 355.080, 323.404 368.092, 329.297 378.497 C 335.250 389.009, 352.626 390.648, 359.912 381.385 C 363.424 376.919, 364.559 371.543, 363.125 366.163 C 360.520 356.393, 351.460 351.087, 340.685 353.021 M 153.481 354.340 C 142.037 359.529, 139.998 374.523, 149.590 382.945 C 163.757 395.384, 185.218 380.951, 178.543 363.475 C 175.947 356.677, 171.328 353.620, 163.110 353.261 C 159.055 353.083, 155.333 353.501, 153.481 354.340 M 157.037 355.129 C 151.576 356.767, 148.293 359.665, 146.458 364.470 C 141.252 378.102, 155.520 389.486, 169.729 383.036 C 172.171 381.928, 174.811 379.718, 175.976 377.808 C 178.679 373.374, 178.678 365.625, 175.974 361.190 C 172.751 355.903, 163.901 353.071, 157.037 355.129 M 339.578 355.453 C 333.096 357.816, 329.744 361.958, 329.276 368.181 C 328.757 375.094, 331.174 379.638, 337.013 382.725 C 348.170 388.625, 362 381.582, 362 370 C 362 359.658, 349.783 351.731, 339.578 355.453 M 244.046 365.536 C 227.106 370.281, 215.735 382.753, 212.976 399.613 C 209.398 421.481, 227.850 443.636, 250.638 444.832 C 263.344 445.500, 274.102 440.944, 283.472 430.927 C 296.414 417.090, 297.581 397.159, 286.341 381.891 C 276.153 368.052, 258.891 361.377, 244.046 365.536 M 241.429 379.381 C 232.287 383.638, 227 392.736, 227 404.210 C 227 414.910, 232.304 423.055, 242.560 428.104 C 248.058 430.811, 249.730 431.192, 253.925 430.695 C 268.316 428.991, 279.250 416.773, 279.250 402.397 C 279.250 391.896, 273.619 383.457, 263.565 378.890 C 257.583 376.173, 247.854 376.389, 241.429 379.381" stroke="none" fill="black" fill-rule="evenodd"/>
</svg>