<svg xmlns="http://www.w3.org/2000/svg" width="512" height="512" viewBox="0 0 512 512" version="1.1">
	<path d="M 163.251 35.479 C 155.293 37.722, 150.172 40.694, 143.812 46.761 C 130.989 58.992, 127.842 67.780, 120.473 111.943 C 116.132 137.959, 116.553 136.733, 111.684 137.540 C 104.067 138.804, 77.578 147.875, 73 150.788 C 63.546 156.804, 53.058 171.483, 49.984 183 C 47.961 190.579, 48.527 198.977, 51.573 206.591 L 54.297 213.399 51.588 217.950 C 50.098 220.452, 46.455 227.450, 43.493 233.500 C 32.501 255.949, 31.058 271.341, 38.857 282.953 C 41.648 287.109, 41.673 287.274, 40.363 292.840 C 39.631 295.953, 39.021 300.750, 39.009 303.500 C 38.988 308.265, 38.713 308.767, 33.168 314.184 C 22.874 324.240, 18.048 336.597, 18.009 353 C 17.983 364.076, 17.273 366.399, 7.899 386.113 C 3.555 395.251, -0 403.160, -0 403.689 C -0 405.091, 4.149 408.664, 6.660 409.424 C 10.849 410.692, 10.984 412.067, 7.796 421 C 6.128 425.675, 3.839 433.010, 2.708 437.301 L 0.653 445.102 3.453 459.119 C 6.119 472.462, 6.352 478.314, 4.417 483.355 C 3.819 484.915, 4.302 485.084, 8.571 484.810 L 13.402 484.500 15.568 471.500 C 18.078 456.442, 20.478 446.692, 26.214 428.250 L 30.335 415 34.116 415 C 39.443 415, 60.160 417.796, 68.500 419.640 C 72.350 420.491, 81.010 422.721, 87.745 424.594 C 96.281 426.968, 102.097 428, 106.944 428 C 114.985 428, 114.637 427.688, 123.910 443.239 C 130.912 454.981, 130.935 455, 138.571 455 C 142.107 455, 145 454.760, 145 454.467 C 145 453.252, 139.464 443.116, 136.006 438 C 133.962 434.975, 131.530 431.023, 130.602 429.217 L 128.914 425.934 132.707 424.342 C 139.475 421.501, 158.485 417.147, 169.562 415.900 L 180.373 414.684 183.042 417.882 C 189.760 425.929, 195.133 439.850, 198.332 457.500 C 199.234 462.479, 201.501 469.182, 204.333 475.250 L 208.884 485 216.442 485 C 222.564 485, 224 484.709, 224 483.468 C 224 480.747, 221.043 474.759, 217.634 470.577 C 212.497 464.275, 211.951 462.681, 210.998 451.211 C 210.508 445.320, 209.239 438.025, 208.178 435 C 203.330 421.181, 191.362 398.485, 179.845 381.268 C 173.777 372.197, 173 370.495, 172.996 366.268 C 172.994 363.310, 172.254 360.289, 171.046 358.308 C 169.585 355.912, 169.124 353.419, 169.197 348.308 C 169.335 338.622, 167.457 333.405, 161.778 327.702 C 157.220 323.126, 157 322.648, 157 317.334 C 157 312.584, 157.437 311.266, 159.969 308.383 C 163.135 304.777, 163.110 303.571, 159.768 298.748 L 157.861 295.996 164.681 285.827 C 168.431 280.233, 172.775 274.721, 174.333 273.578 L 177.166 271.500 178.833 273.629 C 179.750 274.800, 182.462 278.492, 184.860 281.833 C 190.796 290.104, 198.318 295.196, 205.475 295.790 C 210.255 296.186, 211.549 295.865, 215.723 293.249 C 218.350 291.602, 223.350 288.764, 226.834 286.943 C 241.677 279.183, 246.858 265.280, 240.056 251.462 C 238.375 248.048, 237 244.840, 237 244.332 C 237 243.825, 239.271 240.955, 242.046 237.955 C 249.654 229.730, 252.474 223.222, 252.474 213.888 C 252.474 207.028, 252.089 205.507, 248.639 198.708 C 241.826 185.287, 232.754 178.068, 222.643 178.022 C 218.630 178.004, 217.891 177.725, 218.393 176.418 C 218.727 175.548, 219 174.425, 219 173.921 C 219 173.418, 220.556 171.283, 222.458 169.178 C 227.133 164.004, 228.289 160.701, 227.022 156.141 C 224.707 147.804, 226.641 133.969, 231.276 125.723 C 232.769 123.065, 235.058 120.991, 238.317 119.339 C 241.995 117.475, 243.600 115.892, 245.051 112.696 C 247.572 107.143, 247.559 97.506, 245.017 87.568 C 239.658 66.611, 227.478 52.345, 206.500 42.452 C 191.192 35.232, 173.974 32.456, 163.251 35.479 M 327.531 35.113 C 309.265 37.774, 288.758 48.951, 278.551 61.809 C 269.142 73.661, 263.380 90.430, 264.219 103.512 C 264.788 112.373, 266.960 116.300, 273.164 119.682 C 277.040 121.795, 278.303 123.260, 280.646 128.362 C 283.104 133.712, 283.468 135.719, 283.483 144 C 283.492 149.225, 283.112 155.805, 282.638 158.623 C 281.805 163.576, 281.891 163.875, 285.244 167.623 C 291.772 174.922, 292.514 177.995, 287.750 178.010 C 278.717 178.037, 268.415 186.878, 262.136 199.990 C 259.008 206.524, 258.549 208.439, 258.544 214.990 C 258.537 223.999, 261.043 229.604, 268.948 238.253 L 274.004 243.785 270.335 251.509 C 265.844 260.967, 265.618 265.654, 269.291 273.162 C 272.582 279.889, 276.175 283.297, 287.446 290.379 C 298.455 297.297, 301.414 297.692, 310.735 293.486 C 313.615 292.187, 317.557 289.914, 319.496 288.435 C 322.862 285.868, 331.345 275.448, 332.248 272.771 C 332.580 271.788, 333.489 271.884, 336.259 273.196 C 338.804 274.401, 340.906 276.717, 343.522 281.196 C 345.546 284.663, 348.763 289.413, 350.669 291.751 L 354.135 296.001 352.230 298.751 C 348.886 303.578, 348.740 305.114, 351.357 307.913 C 353.186 309.869, 353.935 312.086, 354.428 317 L 355.079 323.500 350.290 327 C 343.729 331.795, 340.974 337.618, 340.249 348.222 C 339.839 354.228, 339.144 357.232, 337.716 359.166 C 336.141 361.300, 335.881 362.719, 336.414 366.275 C 337.042 370.464, 336.817 371.055, 332.484 376.609 C 319.793 392.874, 307.636 414.201, 301.479 431 C 299.176 437.284, 298.631 440.722, 298.115 452.210 L 297.500 465.920 293.297 470.210 C 289.258 474.334, 286 480.252, 286 483.468 C 286 484.709, 287.437 485, 293.563 485 L 301.127 485 305.505 475.750 C 310.501 465.195, 311.941 459.879, 311.976 451.855 C 312.008 444.324, 314.989 435.132, 320.359 426 C 327.356 414.101, 326.832 414.349, 340.825 416.312 C 353.239 418.055, 370.084 421.973, 374.724 424.197 C 376.237 424.922, 377.622 426.274, 377.800 427.201 C 377.979 428.128, 375.677 432.399, 372.685 436.693 C 367.190 444.578, 363 452.049, 363 453.960 C 363 454.571, 365.620 455, 369.345 455 C 376.873 455, 376.529 455.298, 386.490 440.156 L 393.500 429.500 401.500 428.805 C 405.900 428.423, 413.325 426.947, 418 425.524 C 435.525 420.190, 463.353 415, 474.429 415 C 478.650 415, 479.187 415.699, 483.350 426.607 C 488.496 440.092, 490.972 449.754, 493.955 468 L 496.654 484.500 502.244 484.797 L 507.835 485.095 506.293 479.297 C 504.885 474.003, 504.903 472.356, 506.498 460.305 C 508.612 444.331, 508.172 439.895, 502.926 424.279 C 500.767 417.852, 499 412.256, 499 411.844 C 499 411.431, 500.987 410.215, 503.414 409.141 C 508.695 406.805, 510.269 404.365, 509.065 400.378 C 508.587 398.795, 505.480 391.573, 502.160 384.329 C 494.091 366.720, 493 362.693, 493 350.500 C 493 334.412, 489.182 324.724, 478.544 313.816 C 473.888 309.041, 473 307.552, 473 304.513 C 473 302.523, 472.310 297.861, 471.467 294.153 L 469.933 287.412 473.384 280.792 C 477.887 272.152, 478.787 265.169, 476.547 256.233 C 474.066 246.337, 469.655 235.882, 462.823 223.705 L 456.767 212.911 459.304 207.205 C 462.893 199.137, 463.454 193.767, 461.560 185.603 C 458.478 172.313, 447.549 156.336, 437.518 150.458 C 432.126 147.298, 416.016 141.841, 403.625 138.978 L 394.140 136.786 393.505 132.643 C 390.544 113.297, 384.504 81.510, 382.428 74.349 C 381.026 69.512, 378.444 62.854, 376.690 59.554 C 370.267 47.472, 357.800 37.801, 345.201 35.125 C 339.247 33.861, 336.143 33.859, 327.531 35.113 M 160.500 45.556 C 155.722 48.015, 154.047 50.891, 154.022 56.677 C 154.003 61.094, 154.387 62.160, 156.635 63.927 C 158.411 65.325, 160.732 66, 163.757 66 C 168.234 66, 168.240 66.005, 166.590 68.250 C 164.265 71.412, 158.225 83.954, 157.439 87.250 C 156.349 91.821, 158.593 90.361, 160.513 85.250 C 164.673 74.180, 174.596 63.457, 185.295 58.469 L 190.090 56.233 185.864 52.616 C 176.746 44.811, 167.143 42.138, 160.500 45.556 M 336.577 45.485 C 334.420 46.254, 329.530 49.018, 325.711 51.627 L 318.768 56.371 323.634 58.542 C 335.185 63.694, 344.846 73.452, 349.741 84.909 L 352.130 90.500 351.531 86.111 C 351.201 83.697, 349.416 78.440, 347.563 74.430 C 345.710 70.420, 344.451 66.883, 344.764 66.569 C 345.077 66.256, 346.358 66, 347.611 66 C 353.737 66, 357.702 57.390, 354.593 50.838 C 351.581 44.490, 344.922 42.512, 336.577 45.485 M 192.994 107.934 C 180.969 111.592, 171.891 122.264, 170.189 134.742 C 169.120 142.582, 171.640 171.106, 173.560 172.896 C 175.220 174.444, 192.358 180.876, 196.647 181.561 C 202.823 182.547, 207.607 180.583, 210.607 175.831 C 214.748 169.270, 214.739 169.228, 208.549 166.394 L 202.879 163.798 199.013 167.986 C 195.036 172.293, 191.500 173.105, 191.500 169.711 C 191.500 167.525, 203.005 153, 204.737 153 C 205.432 153, 206 154.070, 206 155.377 C 206 157.264, 206.979 158.168, 210.750 159.762 C 213.363 160.867, 216.580 162.099, 217.899 162.500 C 220.232 163.209, 220.275 163.122, 219.455 159.365 C 218.364 154.363, 218.273 139.645, 219.301 134.469 L 220.102 130.437 215.984 130.830 C 212.708 131.143, 211.340 130.740, 209.292 128.861 C 204.867 124.801, 194.952 111.887, 195.535 110.943 C 196.720 109.025, 207.470 114.268, 216.250 121.044 C 218.393 122.698, 219 122.839, 219 121.684 C 219 118.885, 208.212 110.141, 202.762 108.522 C 197.137 106.852, 196.650 106.822, 192.994 107.934 M 307.713 108.461 C 302.752 109.755, 297.042 113.724, 293.697 118.204 C 290.337 122.705, 292.240 123.477, 296.964 119.530 C 302.391 114.996, 307.388 112.393, 312.511 111.432 L 316.429 110.697 314.551 113.599 C 313.518 115.194, 309.767 119.763, 306.214 123.750 C 300.139 130.569, 299.506 131, 295.565 131 L 291.375 131 291.437 141.750 C 291.472 147.662, 291.112 154.924, 290.637 157.887 L 289.775 163.273 292.637 162.563 C 298.496 161.110, 303.483 157.619, 303.816 154.737 C 303.990 153.232, 304.499 152, 304.946 152 C 305.394 152, 307.679 154.588, 310.025 157.750 C 312.371 160.912, 315.440 164.744, 316.846 166.264 C 319.188 168.797, 319.267 169.161, 317.801 170.627 C 316.335 172.094, 315.812 171.868, 311.531 167.922 L 306.861 163.617 302.322 166.059 C 299.825 167.401, 297.574 169.021, 297.320 169.657 C 296.680 171.259, 301.472 178.608, 304.415 180.536 C 308.455 183.183, 313.759 182.476, 325.991 177.660 L 337.482 173.135 339.272 161.818 C 341.709 146.418, 341.229 132.285, 338.046 125.691 C 333.819 116.935, 324.054 109.150, 315.500 107.716 C 313.850 107.440, 310.346 107.775, 307.713 108.461 M 140.557 119.223 C 138.982 121.471, 138.368 126.475, 139.750 125.801 C 140.162 125.600, 141.796 124.789, 143.380 123.998 C 146.050 122.665, 146.613 122.758, 151.130 125.280 C 156.309 128.172, 156.642 128.119, 154.878 124.684 C 151.094 117.319, 143.830 114.549, 140.557 119.223 M 359.912 119.280 C 356.355 121.677, 353.371 126.264, 355.004 126.825 C 355.523 127.003, 356.960 126.441, 358.197 125.575 C 361.288 123.410, 365.225 123.602, 368.365 126.073 L 371 128.145 371 124.645 C 371 122.055, 370.315 120.606, 368.365 119.073 C 365.034 116.452, 364.074 116.476, 359.912 119.280 M 195.250 126.662 C 194.563 126.940, 194 128.310, 194 129.708 C 194 132.022, 194.281 132.194, 197.125 131.625 C 198.844 131.281, 201.319 131, 202.625 131 C 205.520 131, 205.799 128.498, 203.066 127.035 C 201.059 125.961, 197.418 125.788, 195.250 126.662 M 306.441 127.481 C 304.761 128.763, 304.702 129.097, 306 129.966 C 308.430 131.592, 316 131.266, 316 129.535 C 316 126.309, 309.740 124.964, 306.441 127.481 M 144.655 132.829 C 142.452 135.263, 142.569 137.182, 145.115 140.420 C 147.758 143.779, 151.002 143.504, 152.786 139.769 C 155.586 133.908, 148.868 128.174, 144.655 132.829 M 358.655 132.829 C 355.702 136.092, 357.214 143, 360.880 143 C 365.227 143, 367.672 135.815, 364.429 132.571 C 362.368 130.511, 360.684 130.586, 358.655 132.829 M 199.308 134.010 C 196.763 135.035, 194.423 138.332, 193.459 142.250 C 192.552 145.941, 194.297 145.824, 198.774 141.894 C 200.720 140.185, 203.592 138.341, 205.156 137.796 C 208.564 136.608, 208.869 134.466, 205.750 133.630 C 202.903 132.867, 202.015 132.919, 199.308 134.010 M 304.571 134.571 C 302.455 136.688, 302.450 136.679, 306.934 138.966 C 309.098 140.070, 312.124 142.138, 313.660 143.560 C 316.871 146.537, 317.657 145.521, 316.008 140.524 C 313.968 134.344, 307.938 131.205, 304.571 134.571 M 108.703 150.630 C 108.356 150.977, 110.549 154.015, 113.576 157.380 C 120.674 165.274, 126.360 176.844, 129.550 189.886 C 130.947 195.599, 132.795 201.674, 133.658 203.386 C 136.304 208.642, 140.459 214.996, 141.250 214.998 C 142.465 215.001, 142.111 206.757, 140.544 198.565 C 137.181 180.988, 125.905 161.015, 114.807 152.975 C 110.532 149.878, 109.754 149.579, 108.703 150.630 M 395.903 154.250 C 387.586 160.607, 377.737 175.733, 373.056 189.337 C 370.423 196.991, 367.627 214.027, 368.811 215.211 C 369.408 215.808, 371.530 213.317, 374.550 208.472 C 378.070 202.824, 380.100 197.965, 382.207 190.143 C 386.210 175.286, 390.523 166.652, 397.865 158.804 C 401.239 155.197, 404 151.965, 404 151.623 C 404 149.952, 399.702 151.347, 395.903 154.250 M 83.359 158.340 C 76.489 163.063, 72.685 169.577, 72.182 177.485 C 71.962 180.935, 72.291 186.128, 72.912 189.025 C 73.533 191.922, 73.876 194.457, 73.674 194.659 C 73.473 194.861, 71.561 193.638, 69.427 191.942 C 60.915 185.177, 65.034 195.144, 77.512 211.500 C 88.216 225.532, 118.983 257.281, 127.406 262.987 C 141.212 272.340, 152.855 272.229, 172.500 262.557 C 181.714 258.021, 191.734 250.653, 195.361 245.746 C 196.597 244.073, 197.356 241.579, 197.294 239.391 C 197.180 235.368, 192.190 224.824, 188.143 220.053 L 185.500 216.937 174.529 218.498 C 154.508 221.347, 148.173 223.388, 138.242 230.191 C 135.899 231.795, 133.631 232.890, 133.200 232.624 C 132.770 232.358, 129.591 225.921, 126.138 218.320 C 122.684 210.719, 119.327 203.799, 118.679 202.943 C 118.031 202.087, 114.896 199.474, 111.714 197.135 C 106.317 193.169, 99.410 185.257, 100.444 184.223 C 100.696 183.971, 104.366 185.666, 108.599 187.990 L 116.297 192.215 115.742 186.093 C 115.437 182.726, 114.208 178.065, 113.012 175.736 C 109.089 168.097, 94.410 155, 89.772 155 C 88.917 155, 86.032 156.503, 83.359 158.340 M 413.093 159.590 C 406.741 164.364, 401.340 170.349, 398.722 175.513 C 396.806 179.290, 394.484 190.817, 395.445 191.778 C 395.839 192.172, 399.761 190.544, 404.160 188.160 C 408.559 185.776, 412.345 184.012, 412.573 184.240 C 413.452 185.119, 405.775 192.956, 400.762 196.295 C 393.069 201.420, 391.702 203.260, 385.678 216.592 C 379.806 229.587, 377.952 233, 376.762 233 C 376.345 233, 373.788 231.407, 371.078 229.461 C 362.192 223.077, 350.145 219.438, 331.398 217.477 L 325.296 216.838 322.328 220.669 C 315.795 229.101, 312.338 237.226, 313.430 241.578 C 314.820 247.116, 327.092 257.553, 339.552 263.797 C 354.076 271.074, 366.190 272.150, 376.490 267.079 C 390.127 260.366, 430.378 219.104, 441.601 200.334 C 444.062 196.217, 446.326 190, 445.363 190 C 445.090 190, 443.266 191.221, 441.309 192.713 L 437.752 195.426 438.626 190.963 C 440.215 182.848, 439.612 172.913, 437.257 168.405 C 434.040 162.247, 424.781 155, 420.131 155 C 419.618 155, 416.451 157.065, 413.093 159.590 M 136 156.789 C 136 157.343, 137.855 160.850, 140.123 164.582 C 147.726 177.097, 151.479 188.360, 153.759 205.500 L 154.557 211.500 159.785 211.282 C 162.661 211.161, 165.830 210.626, 166.829 210.092 C 168.362 209.271, 174.906 199.077, 178.881 191.316 C 181.853 185.513, 179.336 184.726, 168.509 188.070 C 164.823 189.209, 161.637 189.970, 161.429 189.762 C 161.221 189.554, 160.363 184.460, 159.522 178.442 C 157.829 166.322, 158.360 167.122, 147.940 160.992 C 140.915 156.860, 136 155.130, 136 156.789 M 365.472 160.058 C 361.088 162.290, 356.680 164.922, 355.679 165.907 C 354.438 167.128, 353.320 171.066, 352.170 178.275 C 351.241 184.092, 350.245 189.089, 349.955 189.378 C 349.665 189.668, 345.893 189, 341.573 187.893 C 336.261 186.532, 333.391 186.209, 332.704 186.896 C 331.477 188.123, 341.544 209.611, 343.741 210.454 C 344.527 210.756, 347.557 211.283, 350.474 211.626 L 355.777 212.249 356.960 204.875 C 359.510 188.978, 366.331 170.737, 374.021 159.250 C 376.953 154.870, 375.372 155.019, 365.472 160.058 M 431.564 179.754 C 429.060 185.893, 419.315 195.587, 411.500 199.712 C 408.200 201.454, 404.600 203.613, 403.500 204.509 C 401.615 206.046, 401.852 206.108, 407.647 205.596 C 419.477 204.550, 429.786 198.885, 433.087 191.616 C 434.944 187.526, 435.822 174.996, 434.250 175.004 C 433.837 175.006, 432.629 177.143, 431.564 179.754 M 78 182.184 C 78 193.147, 82.793 199.564, 93.901 203.470 C 99.502 205.440, 109 206.601, 109 205.316 C 109 204.788, 105.513 202.371, 101.250 199.944 C 91.956 194.652, 85.095 188.094, 81.566 181.131 C 80.136 178.309, 78.749 176, 78.483 176 C 78.217 176, 78 178.783, 78 182.184 M 212.971 187.442 C 202.942 191.138, 192 198.529, 192 201.606 C 192 202.376, 193.783 204.616, 195.963 206.585 C 198.142 208.554, 202.467 213.907, 205.574 218.481 C 212.082 228.062, 213.542 233.998, 210.522 238.606 C 209.095 240.784, 209.029 241.403, 210.145 242.110 C 212.398 243.536, 213.347 242.588, 214.606 237.653 C 216.181 231.480, 219.895 226.754, 226.750 222.202 C 231.343 219.153, 233.311 218.468, 237.913 218.320 L 243.500 218.140 243.370 213.172 C 243.138 204.293, 235.300 191.275, 227.875 187.435 C 224.490 185.685, 217.730 185.688, 212.971 187.442 M 281.162 188.998 C 273.657 194.434, 267 207.008, 267 215.747 L 267 219.176 270.898 218.517 C 276.403 217.587, 282.329 219.657, 287.703 224.387 C 292.245 228.385, 295.921 234.644, 295.993 238.500 C 296.053 241.715, 297.530 243.284, 299.813 242.559 L 301.876 241.905 299.853 238.476 C 297.603 234.662, 297.909 231.138, 301.028 224.974 C 304.042 219.017, 312.009 209.085, 316.562 205.608 L 320.887 202.306 316.694 198.330 C 311.308 193.224, 308.317 191.406, 300.399 188.426 C 291.485 185.071, 286.373 185.223, 281.162 188.998 M 63.718 229.938 C 53.376 241.109, 47.196 254.274, 46.321 267 L 45.874 273.500 48.021 270.750 C 50.710 267.304, 56.413 266.964, 60.296 270.018 C 63.393 272.454, 68.994 283.305, 69.015 286.910 C 69.049 292.586, 70.408 292.443, 77.610 286.001 C 81.399 282.612, 88.933 276.899, 94.351 273.306 L 104.202 266.773 99.388 261.887 C 96.741 259.199, 94.027 257, 93.356 257 C 92.685 257, 87.976 259.025, 82.891 261.500 C 72.762 266.430, 68.656 267.094, 67.035 264.066 C 66.466 263.002, 66 261.664, 66 261.092 C 66 260.520, 70.050 257.328, 75 254 C 79.950 250.672, 84 247.623, 83.999 247.224 C 83.999 246.826, 82.299 243.736, 80.221 240.358 C 78.143 236.980, 75.367 231.918, 74.051 229.108 C 72.735 226.299, 71.109 224, 70.437 224 C 69.765 224, 66.741 226.672, 63.718 229.938 M 436.977 230.250 C 435.162 233.688, 432.174 238.871, 430.338 241.769 C 428.502 244.668, 427 247.199, 427 247.395 C 427 247.590, 430.262 250.007, 434.250 252.765 C 438.238 255.524, 442.373 258.747, 443.439 259.928 C 445.368 262.065, 445.364 262.090, 442.639 264.788 L 439.899 267.500 428.761 261.700 L 417.623 255.899 412.277 261.245 L 406.931 266.590 416.759 273.239 C 422.165 276.895, 429.571 282.621, 433.217 285.962 L 439.847 292.037 441.505 286.269 C 443.575 279.064, 447.976 272.036, 451.849 269.748 C 457.448 266.441, 465.254 268.291, 463.623 272.539 C 463.243 273.530, 463.429 273.853, 464.130 273.420 C 464.855 272.971, 465.086 269.863, 464.800 264.403 C 464.418 257.133, 463.838 255.015, 460.252 247.786 C 456.108 239.431, 443.984 224, 441.565 224 C 440.857 224, 438.793 226.813, 436.977 230.250 M 227.675 234.132 C 223.922 236.361, 221.066 238.399, 221.328 238.662 C 222.213 239.546, 231.783 234.860, 234.076 232.419 C 237.292 228.995, 235.534 229.466, 227.675 234.132 M 275.010 231.512 C 276.250 233.007, 287.985 239.006, 289.643 238.993 C 290.849 238.984, 285.386 235.358, 279.783 232.449 C 274.324 229.615, 273.262 229.406, 275.010 231.512 M 193.174 263.314 C 190.205 266.475, 190.442 269.456, 194.116 275.181 C 198.533 282.065, 201.349 284.004, 206.885 283.978 C 213.950 283.944, 219.466 280.979, 222.054 275.825 L 224.226 271.500 220.581 274.977 C 217.688 277.737, 216.126 278.455, 213.011 278.455 C 207.572 278.455, 204.149 275.624, 200 267.694 C 198.075 264.015, 196.241 261.004, 195.924 261.003 C 195.608 261.001, 194.370 262.042, 193.174 263.314 M 309.019 266.750 C 305.139 273.950, 304.043 275.384, 301.316 276.837 C 298.193 278.500, 294.969 278.278, 290.711 276.108 C 286.499 273.960, 286.076 274.555, 289.088 278.385 C 292.068 282.174, 296.175 284.001, 301.700 283.996 C 307.604 283.992, 311.850 281.571, 315.998 275.844 C 320.518 269.604, 320.781 267.425, 317.438 263.935 C 315.891 262.321, 314.061 261, 313.372 261 C 312.682 261, 310.723 263.587, 309.019 266.750 M 108.734 278.480 C 100.239 282.008, 91.712 287.470, 87.613 292.007 C 83.319 296.760, 83.173 297.735, 86.565 299.025 C 90.858 300.657, 92.464 300.151, 94.401 296.553 C 95.422 294.658, 97.244 292.180, 98.450 291.047 C 100.505 289.116, 100.931 289.075, 105.290 290.387 L 109.939 291.786 116.219 286.766 C 119.674 284.006, 122.621 281.441, 122.768 281.068 C 123.002 280.478, 115.845 275.928, 114.864 276.042 C 114.664 276.066, 111.905 277.162, 108.734 278.480 M 392.518 278.682 L 388.784 281.219 391.470 282.980 C 392.947 283.949, 395.317 286.375, 396.737 288.371 C 399.613 292.413, 400.851 292.670, 407 290.500 C 409.338 289.675, 411.406 289, 411.595 289 C 411.784 289, 413.522 291.475, 415.457 294.500 C 419.107 300.206, 420.705 300.926, 424.741 298.684 L 426.983 297.439 424.584 293.909 C 421.480 289.341, 417.217 286.141, 408.146 281.574 C 396.663 275.791, 396.749 275.807, 392.518 278.682 M 48.927 298.691 C 46.901 304.021, 48.026 306.246, 54.500 309.712 C 60.607 312.981, 85.195 321.522, 90.317 322.153 C 92.928 322.475, 93.270 322.099, 94.994 317.011 C 96.018 313.992, 96.660 311.327, 96.422 311.089 C 95.890 310.556, 51.809 296, 50.728 296 C 50.301 296, 49.490 297.211, 48.927 298.691 M 452.500 298.621 C 449.200 299.966, 439.300 303.364, 430.500 306.172 C 421.700 308.981, 414.351 311.403, 414.169 311.554 C 413.987 311.705, 414.351 312.788, 414.979 313.961 C 415.607 315.134, 416.431 317.822, 416.810 319.935 L 417.500 323.777 424 321.805 C 434.957 318.480, 453.215 311.921, 458.750 309.321 C 463.286 307.190, 464 306.466, 464 303.992 C 464 299.631, 462.283 295.988, 460.275 296.088 C 459.299 296.137, 455.800 297.277, 452.500 298.621 M 41.132 324.441 C 32.687 333.236, 31.609 336.066, 31.779 349 C 31.954 362.369, 30.573 368.133, 23.054 385.421 C 19.725 393.077, 17 399.649, 17 400.024 C 17 400.400, 24.537 400.981, 33.750 401.316 C 50.273 401.917, 66.545 404.412, 79.993 408.405 C 82.934 409.279, 85.564 409.769, 85.838 409.495 C 87.465 407.868, 76.074 394.532, 66.634 387.011 C 57.447 379.691, 57.676 379.685, 80.970 386.665 C 96.643 391.361, 99 391.743, 99 389.587 C 99 388.755, 96.022 387.037, 91.750 385.406 C 87.763 383.883, 80.900 380.985, 76.500 378.967 C 67.701 374.931, 51.093 369, 48.590 369 C 46.020 369, 46.769 367.096, 49.621 366.380 C 51.063 366.018, 55.849 366, 60.257 366.340 C 68.211 366.954, 68.259 366.943, 66.472 364.969 C 64.201 362.460, 57.098 360.328, 48.034 359.435 C 44.165 359.053, 41 358.394, 41 357.969 C 41 356.513, 47.499 354.897, 55.750 354.300 C 64.836 353.642, 65.099 353.372, 62.315 347.534 C 60.849 344.460, 60.166 344.002, 57.065 344.012 C 55.104 344.018, 51.025 344.688, 48 345.500 C 44.975 346.312, 42.440 346.982, 42.367 346.988 C 41.427 347.072, 41.485 340.622, 42.449 337.824 C 44.585 331.622, 52.862 322.528, 54.698 324.365 C 54.988 324.655, 54.499 327.021, 53.612 329.624 C 52.726 332.227, 52 334.726, 52 335.178 C 52 335.630, 54.439 336, 57.420 336 L 62.839 336 64.493 331.022 C 65.402 328.285, 65.869 325.597, 65.530 325.048 C 65.191 324.500, 62.741 323.407, 60.085 322.618 C 57.429 321.829, 53.871 320.468, 52.178 319.592 C 50.485 318.716, 48.698 318, 48.208 318 C 47.718 318, 44.534 320.898, 41.132 324.441 M 455.815 321.316 C 451.038 323.067, 446.897 324.741, 446.613 325.035 C 446.330 325.329, 446.666 327.804, 447.360 330.535 L 448.623 335.500 454.812 335.798 C 458.215 335.961, 461 335.906, 461 335.673 C 461 335.441, 460.325 333.338, 459.500 331 C 457.626 325.688, 457.608 324, 459.427 324 C 463.884 324, 471.414 339.602, 469.249 344.353 L 468.151 346.763 461.745 345.231 C 458.222 344.388, 454.251 343.992, 452.920 344.350 C 450.337 345.047, 447.740 348.077, 446.577 351.750 C 445.915 353.841, 446.164 354, 450.101 354 C 455.284 354, 466.085 355.816, 468.022 357.014 C 470.397 358.482, 468.270 359.380, 460.704 360.102 C 451.548 360.977, 445.815 362.520, 442.875 364.900 C 440.582 366.757, 440.643 366.769, 449.636 366.256 C 461.989 365.552, 464.260 366.912, 455.833 369.969 C 452.350 371.232, 443.200 374.877, 435.500 378.069 C 427.800 381.261, 418.548 384.609, 414.939 385.510 C 407.305 387.416, 405.483 388.354, 406.431 389.888 C 407.619 391.811, 412.245 391.125, 426.081 386.974 C 433.461 384.759, 441.300 382.684, 443.500 382.363 L 447.500 381.778 443.508 385.139 C 424.183 401.410, 417.673 408.006, 419.317 409.650 C 419.949 410.282, 423.645 409.602, 447.500 404.459 C 456.339 402.553, 464.033 401.691, 476.707 401.186 L 493.914 400.500 487.293 384 L 480.672 367.500 480.037 352.500 C 479.606 342.323, 478.902 336.367, 477.847 333.977 C 476.208 330.265, 466.433 317.953, 465.214 318.066 C 464.821 318.103, 460.592 319.565, 455.815 321.316 M 75.068 329.873 C 73.099 333.552, 72.056 344.935, 73.144 350.877 C 75.307 362.693, 81.139 369.345, 93.288 373.853 C 107.634 379.176, 128.710 374.509, 134.388 364.752 C 140.750 353.819, 143.313 340.884, 139.811 337.382 C 137.501 335.073, 134.671 338.223, 131.010 347.181 C 126.767 357.563, 126.310 357.855, 119.239 354.713 C 116.083 353.311, 110.125 351.173, 106 349.962 C 94.655 346.633, 94 346.044, 94 339.174 L 94 333.394 87.250 331.282 C 75.738 327.680, 76.212 327.735, 75.068 329.873 M 434.500 328.566 C 433.950 328.740, 430.256 329.822, 426.291 330.971 C 417.521 333.513, 416.005 334.888, 415.985 340.321 C 415.976 342.620, 415.639 344.995, 415.235 345.601 C 414.831 346.207, 410.675 347.955, 406 349.487 C 401.325 351.018, 394.695 353.529, 391.267 355.065 L 385.034 357.859 383.015 355.292 C 381.904 353.879, 380.087 349.784, 378.977 346.190 C 376.604 338.506, 375.541 337, 372.494 337 C 368.667 337, 367.852 344.781, 370.577 355.296 C 373.304 365.823, 375.354 368.780, 382.153 371.995 C 395.018 378.079, 408.069 377.997, 420.818 371.753 C 432.999 365.787, 438.482 355.242, 437.848 339 C 437.515 330.478, 436.680 327.877, 434.500 328.566 M 84.093 339.654 C 82.179 346.761, 86.735 355.743, 94.216 359.612 C 99.119 362.147, 99.288 360.754, 94.898 353.983 C 92.586 350.417, 89.929 345.338, 88.993 342.695 C 86.512 335.693, 85.353 334.974, 84.093 339.654 M 423.326 341.250 C 422.186 343.587, 418.966 348.857, 416.171 352.961 C 413.375 357.064, 411.272 360.606, 411.497 360.831 C 412.413 361.747, 417.044 359.834, 420.066 357.291 C 424.053 353.936, 427.977 345.745, 427.990 340.750 C 428.003 335.674, 425.937 335.896, 423.326 341.250 M 148.279 351.588 C 147.653 354.290, 146.836 357.288, 146.463 358.250 C 145.612 360.449, 147.280 360.518, 150.490 358.414 C 152.333 357.207, 152.686 356.432, 151.971 355.164 C 151.455 354.249, 150.669 351.965, 150.225 350.088 L 149.418 346.676 148.279 351.588 M 358.062 351.250 C 357.416 353.587, 356.679 355.975, 356.425 356.556 C 356.171 357.137, 357.602 358.393, 359.605 359.349 C 362.261 360.615, 363.110 360.728, 362.741 359.767 C 362.463 359.042, 361.700 355.873, 361.047 352.724 C 360.393 349.576, 359.719 347, 359.548 347 C 359.377 347, 358.708 348.913, 358.062 351.250 M 148 374.248 C 127.232 383.495, 119.653 388, 124.866 388 C 126.026 388, 131.191 386.650, 136.341 385 C 141.492 383.350, 146.560 382.017, 147.603 382.038 C 150.775 382.102, 140.102 391.217, 125.935 400.543 C 118.897 405.176, 112.856 409.424, 112.510 409.983 C 111.564 411.515, 113.818 411.297, 138.109 407.503 C 150.424 405.579, 161.400 404.001, 162.500 403.997 C 166.875 403.979, 172 401.908, 172 400.157 C 172 398.170, 165.447 387.228, 159.163 378.720 C 154.722 372.709, 153.004 372.021, 148 374.248 M 350.326 377.250 C 345.311 382.565, 334 397.946, 334 399.451 C 334 400.217, 335.462 401.314, 337.250 401.886 C 341.842 403.358, 390.825 411.227, 392.290 410.728 C 392.955 410.502, 390.800 408.610, 387.500 406.525 C 366.589 393.312, 354.624 384.090, 356.246 382.436 C 356.656 382.018, 361.833 383.098, 367.751 384.838 C 380.431 388.564, 380.369 388.558, 379.025 386.046 C 377.798 383.753, 358.836 374, 355.606 374 C 354.388 374, 352.012 375.462, 350.326 377.250" stroke="none" fill="black" fill-rule="evenodd"/>
</svg>