<svg xmlns="http://www.w3.org/2000/svg" width="512" height="512" viewBox="0 0 512 512" version="1.1">
	<path d="M 129.500 65.994 C 121.647 67.163, 112.804 69.651, 102.759 73.519 C 97.666 75.480, 87.742 79.095, 80.705 81.553 C 63.873 87.431, 56.866 90.680, 47.736 96.840 C 29.784 108.954, 18.651 125.001, 14.452 144.814 C 11.363 159.387, 13.203 169.253, 22.830 189.732 C 26.648 197.854, 30.530 206.749, 31.458 209.497 C 33.490 215.518, 34.982 227.676, 34.992 238.289 C 35.010 256.286, 38.477 274.868, 44.091 287.046 C 46.851 293.034, 47.058 294.128, 46.090 297.613 C 44.090 304.816, 44.652 307.667, 49 312.384 C 53.401 317.159, 53.689 318.416, 51.551 323.532 C 50.494 326.062, 49.480 327.001, 47.801 327.004 C 39.508 327.017, 31.279 341.990, 24.585 369.245 C 19.884 388.390, 19.497 397.788, 23.313 400.214 C 23.966 400.630, 27.241 400.976, 30.591 400.985 L 36.682 401 37.899 395.562 C 38.568 392.571, 40.125 388.634, 41.359 386.812 L 43.603 383.500 58.552 383.628 C 71.772 383.741, 74.829 384.107, 85 386.796 C 91.325 388.468, 104.984 393.264, 115.354 397.454 C 136.954 406.181, 143.510 407.967, 154 407.980 C 163.310 407.991, 167.946 406.752, 171.074 403.416 C 173.388 400.949, 173.496 400.246, 173.423 388.165 C 173.343 375.194, 170.460 356.431, 167.433 349.185 C 165.419 344.364, 165.628 342.696, 168.595 339.924 C 173.045 335.767, 173.963 332.957, 173.340 325.390 L 172.773 318.500 177.236 315.377 C 182.735 311.529, 186.040 305.106, 186.926 296.550 C 187.558 290.439, 187.741 290.126, 195.716 281.405 C 229.126 244.872, 243.737 218.646, 252.487 179.500 C 255.260 167.095, 256 164.909, 256 169.129 C 256 172.965, 263.476 201.583, 266.849 210.657 C 275.038 232.688, 289.246 253.546, 312.829 278.158 L 323.500 289.295 323.500 296.397 C 323.500 305.321, 326.645 311.349, 333.543 315.646 L 338.124 318.500 337.457 326.257 L 336.791 334.014 341.395 338.554 C 343.928 341.050, 346 343.410, 345.999 343.797 C 345.999 344.183, 345.126 346.797, 344.059 349.604 C 340.720 358.388, 338.641 371.710, 338.691 384 C 338.770 403.463, 341.435 407.261, 355.422 407.846 C 365.929 408.286, 371.997 406.745, 390.834 398.855 C 420.184 386.562, 434.366 383, 453.955 383 C 465.807 383, 466.154 383.063, 468.555 385.653 C 470.776 388.051, 474 396.355, 474 399.682 C 474 400.638, 475.787 401, 480.500 401 C 485.783 401, 487.396 400.604, 489.114 398.886 C 490.934 397.066, 491.134 396.058, 490.558 391.636 C 487.742 370.018, 478.054 339.928, 471.411 332.167 C 469.134 329.507, 466.661 327.885, 463.556 327.016 C 459.594 325.907, 458.897 325.291, 458.018 322.123 C 456.592 316.992, 456.660 316.700, 460.016 313.485 C 464.010 309.658, 465.351 304.528, 463.969 298.360 C 462.980 293.948, 463.135 293.065, 465.981 286.891 C 471.915 274.016, 475.976 252.092, 476.017 232.711 C 476.042 220.870, 478.224 212.209, 484.621 198.546 C 498.116 169.727, 500.093 162.725, 498.192 150.496 C 494.156 124.538, 475.046 100.628, 448.622 88.476 C 444.705 86.675, 437.900 83.974, 433.500 82.474 C 429.100 80.974, 419.200 77.377, 411.500 74.481 C 390.439 66.558, 384.716 65.485, 364 65.579 C 349.103 65.647, 344.618 66.054, 333.849 68.315 C 314.058 72.471, 301.534 77.523, 287.500 87.012 C 276.128 94.702, 266.075 106.660, 260.970 118.571 C 259.253 122.576, 258.348 125.695, 255.480 137.500 C 254.825 140.193, 254.602 139.785, 253.297 133.500 C 250.087 118.041, 241.628 103.316, 229.706 92.432 C 215.196 79.184, 193.568 70.110, 168.010 66.545 C 156.576 64.950, 138.270 64.688, 129.500 65.994 M 166 74.695 C 150.925 76.309, 133.835 80.960, 117.087 88.004 C 110.526 90.764, 99.161 94.650, 91.829 96.641 C 71.286 102.220, 66.393 105.433, 60.060 117.500 L 56.912 123.500 57.469 116.186 L 58.026 108.872 54.945 110.686 C 50.757 113.152, 47.653 117.442, 42.972 127.233 C 32.785 148.544, 31.396 172.190, 39.418 187.759 C 43.128 194.958, 52.229 204.996, 60.500 211.011 C 62.407 212.398, 62.427 212.373, 60.929 210.483 C 60.065 209.392, 55.638 204.297, 51.090 199.159 C 39.887 186.503, 39.623 185.769, 39.679 167.500 C 39.745 146.395, 43.994 127.377, 50.404 119.500 C 51.925 117.631, 51.991 118.122, 51.411 127 C 50.402 142.476, 54.024 155.870, 61.146 162.992 C 65.191 167.037, 69.455 166.948, 84.571 162.500 C 91.113 160.575, 96.506 159, 96.556 159 C 96.605 159, 95.773 162.262, 94.706 166.250 C 93.252 171.683, 92.758 176.882, 92.733 187 C 92.696 201.719, 93.419 206.913, 98.231 226.500 L 101.424 239.500 102.369 235.180 C 103.135 231.678, 102.713 227.796, 100.141 214.680 C 97.722 202.341, 96.973 195.854, 96.985 187.355 C 97.006 171.880, 99.161 165.100, 106.618 157.045 C 119.184 143.473, 134.734 138.937, 178.851 135.977 C 195.813 134.839, 198.986 133.831, 201.665 128.733 C 204.244 123.827, 204.687 109.441, 202.507 101.389 C 199.644 90.811, 189.687 77.733, 182.383 74.955 C 179.950 74.030, 173.206 73.923, 166 74.695 M 329.343 74.957 C 325.104 75.967, 320.988 79.351, 315.709 86.164 C 305.666 99.126, 302.351 116.975, 307.959 127.895 C 311.082 133.978, 314.204 135.079, 331.322 136.132 C 349.634 137.258, 368.174 139.494, 377 141.640 C 392.191 145.333, 403.884 153.938, 409.632 165.653 C 412.448 171.395, 412.499 171.797, 412.433 188 C 412.378 201.699, 411.981 206.028, 410.095 213.500 C 407.498 223.785, 406.049 240.164, 407.888 238.441 C 409.326 237.093, 413.493 218.800, 415.620 204.500 C 417.487 191.944, 417.016 173.025, 414.616 164.250 C 413.827 161.363, 413.402 159, 413.672 159 C 413.942 159, 419.358 160.575, 425.708 162.500 C 432.058 164.425, 439.291 166, 441.782 166 C 445.729 166, 446.776 165.510, 449.950 162.174 C 456.930 154.836, 461.178 138.328, 459.184 126.292 C 458.574 122.608, 458.323 119.347, 458.627 119.046 C 459.892 117.796, 464.201 125.033, 466.511 132.285 C 469.808 142.641, 471.368 156.756, 470.779 170.915 C 470.186 185.189, 468.688 188.540, 457.106 201.500 C 448.950 210.625, 447.481 212.883, 450.885 211.062 C 454.422 209.169, 463.248 199.512, 467.960 192.379 C 474.367 182.681, 476.421 175.203, 476.306 162 C 476.190 148.710, 473.020 137.349, 465.753 124.183 C 461.147 115.837, 454.607 108.059, 453.297 109.369 C 453.026 109.640, 453.299 112.165, 453.902 114.980 C 454.506 117.795, 455 120.751, 455 121.549 C 455 124.354, 453.142 122.960, 451.936 119.250 C 450.151 113.762, 445.222 107.336, 440.296 104.072 C 437.922 102.500, 432.272 100.236, 427.740 99.040 C 411.668 94.801, 402.355 91.729, 390.603 86.789 C 376.514 80.867, 360.422 76.631, 346.211 75.105 C 334.826 73.882, 333.887 73.874, 329.343 74.957 M 220.982 123 C 220.943 126.756, 217.554 133.491, 214.199 136.480 L 211.225 139.131 214.652 144.815 C 216.537 147.942, 218.624 152.363, 219.289 154.641 C 219.955 156.918, 220.950 158.894, 221.500 159.031 C 223.206 159.456, 228.263 148.322, 228.772 143.020 C 229.370 136.801, 227.707 130.596, 223.908 124.870 C 221.301 120.941, 221.006 120.752, 220.982 123 M 285.493 124.832 C 282.153 129.879, 280.995 134.192, 281.022 141.493 C 281.044 147.580, 283.433 154.612, 286.710 158.232 C 289.026 160.791, 289.693 160.449, 290.471 156.305 C 291.295 151.912, 295.202 143.907, 297.422 142.065 C 299.645 140.220, 299.385 138.482, 296.614 136.667 C 293.754 134.793, 290 127.424, 290 123.684 C 290 119.945, 288.469 120.335, 285.493 124.832 M 189.230 141.551 C 185.622 144.079, 176.854 146.799, 152.240 153.029 C 123.164 160.387, 121.002 161.299, 118.017 167.465 C 113.068 177.687, 113.025 195.249, 117.925 204.854 C 120.791 210.471, 123.513 211.306, 131.713 209.086 C 147.999 204.675, 188.763 192.862, 191.493 191.762 C 200.652 188.071, 205.342 179.204, 205.381 165.500 C 205.434 147.355, 197.577 135.705, 189.230 141.551 M 310.513 142.397 C 306.874 146.035, 304.620 155.017, 304.568 166.092 C 304.526 174.835, 304.788 176.205, 307.532 181.571 C 310.105 186.600, 311.340 187.862, 316.021 190.237 C 322.874 193.714, 380.442 210.146, 384.468 209.774 C 387.914 209.456, 391.328 205.073, 393.172 198.599 C 395.052 191.997, 394.803 176.284, 392.732 170.920 C 389.380 162.234, 385.816 160.308, 363 154.852 C 341.842 149.792, 328.754 145.898, 322.779 142.885 C 315.818 139.375, 313.621 139.288, 310.513 142.397 M 56.289 219 C 57.999 221.792, 69.420 253.080, 77.599 277.383 C 80.539 286.119, 83.623 294.302, 84.452 295.566 C 85.510 297.182, 88.568 298.665, 94.729 300.550 C 125.435 309.944, 138.512 313.822, 138.736 313.598 C 138.876 313.457, 134.207 311.383, 128.358 308.989 C 118.675 305.025, 117.472 304.237, 114.894 300.172 C 113.337 297.717, 110.857 292.512, 109.382 288.604 C 105.928 279.452, 100.679 268.909, 96.218 262.162 C 89.951 252.684, 51.383 210.993, 56.289 219 M 448.093 224.250 C 444.245 227.688, 437.138 234.922, 432.299 240.327 C 413.574 261.241, 408.907 268.232, 401.714 286.144 C 395.825 300.808, 393.651 303.199, 380.432 309.554 C 374.144 312.576, 369 315.201, 369 315.387 C 369 315.572, 372.038 314.704, 375.750 313.458 C 379.462 312.212, 391.275 308.353, 402 304.884 C 415.945 300.373, 422.237 297.850, 424.088 296.027 C 425.783 294.357, 427.982 289.517, 430.466 281.989 C 435.683 266.175, 450.621 227.430, 453.499 222.250 C 454.797 219.912, 455.686 218, 455.474 218 C 455.262 218, 451.941 220.813, 448.093 224.250 M 80 324.497 C 93.230 326.046, 105.855 328.400, 117.900 331.564 C 123.071 332.922, 127.499 333.834, 127.741 333.592 C 128.575 332.758, 109.480 327.164, 98.699 325.084 C 91.964 323.784, 84.436 323.050, 78.699 323.134 L 69.500 323.268 80 324.497 M 414.668 324.568 C 409.811 325.323, 402.386 326.906, 398.168 328.084 C 390.105 330.338, 377.680 335.013, 378.247 335.580 C 378.430 335.763, 382.161 334.804, 386.540 333.448 C 398.517 329.741, 416.375 326.191, 429.074 324.993 C 435.308 324.405, 440.617 323.716, 440.871 323.462 C 441.861 322.472, 423.034 323.266, 414.668 324.568 M 374 337 C 373.175 337.533, 372.950 337.969, 373.500 337.969 C 374.050 337.969, 375.175 337.533, 376 337 C 376.825 336.467, 377.050 336.031, 376.500 336.031 C 375.950 336.031, 374.825 336.467, 374 337 M 72.397 339.250 C 74.608 347.145, 74.311 349.399, 69.609 360.405 C 67.074 366.340, 65 371.553, 65 371.989 C 65 372.425, 66.625 372.971, 68.610 373.203 C 71.872 373.583, 72.461 373.260, 74.715 369.855 C 77.452 365.718, 78.050 365.442, 98.250 358.976 C 105.263 356.731, 111 354.468, 111 353.947 C 111 353.426, 110.386 353, 109.636 353 C 108.886 353, 103.373 350.486, 97.386 347.412 C 85.528 341.326, 75.485 337, 73.211 337 C 72.193 337, 71.953 337.664, 72.397 339.250 M 432 338.900 C 428.975 339.886, 421.100 343.460, 414.500 346.842 C 407.900 350.225, 401.938 352.994, 401.250 352.996 C 397.222 353.008, 401.859 355.162, 415.978 359.838 C 432.274 365.234, 434.197 366.412, 436.324 372.298 C 436.858 373.775, 437.644 373.974, 440.737 373.415 C 442.807 373.041, 444.678 372.579, 444.896 372.388 C 445.113 372.198, 443.538 367.870, 441.396 362.771 C 437.408 353.280, 436.452 346.246, 438.269 339.750 C 439.163 336.552, 439.193 336.556, 432 338.900 M 115.935 356.908 C 118.945 361.135, 124.758 365.339, 133.500 369.609 C 137.350 371.490, 139.383 372.235, 138.019 371.264 C 136.654 370.294, 131.254 366.329, 126.019 362.453 C 113.657 353.301, 113.179 353.038, 115.935 356.908 M 390 359.043 C 386.425 361.809, 381.131 365.700, 378.235 367.688 C 375.339 369.676, 373.157 371.490, 373.385 371.719 C 374.927 373.260, 396.023 358.988, 397.362 355.499 C 398.304 353.044, 396.845 353.746, 390 359.043" stroke="none" fill="black" fill-rule="evenodd"/>
</svg>